<svg width="1043" height="558" viewBox="0 0 1043 558" fill="none" xmlns="http://www.w3.org/2000/svg">
<g clip-path="url(#clip0_6183_3149)">
<path d="M504 261.007H542.5C571 261.007 575 241.992 612 197.5C632.791 172.5 670 161 701.5 161" stroke="url(#paint0_linear_6183_3149)" stroke-width="8" stroke-linecap="round"/>
<path d="M504 261.5H542.5C571 261.5 575 280.515 612 325.006C632.791 350.007 670 361.507 701.5 361.507" stroke="url(#paint1_linear_6183_3149)" stroke-width="8" stroke-linecap="round"/>
<path d="M703 257.5C705.209 257.5 707 259.291 707 261.5C707 263.709 705.209 265.5 703 265.5V257.5ZM504.5 257.5H564.5V265.5H504.5V257.5ZM564.5 257.5H703V265.5H564.5V257.5Z" fill="url(#paint2_linear_6183_3149)"/>
<path d="M405.5 257C408.261 257 410.5 259.239 410.5 262C410.5 264.761 408.261 267 405.5 267V257ZM-3 257H267V267H-3V257ZM267 257H405.5V267H267V257Z" fill="url(#paint3_linear_6183_3149)"/>
<path d="M504 261.007H542.5C571 261.007 575 241.992 612 197.5C632.791 172.5 670 161 701.5 161" stroke="#7D71FF" stroke-linecap="round" stroke-dasharray="2 2"/>
<path d="M504 261.5H542.5C571 261.5 575 280.515 612 325.006C632.791 350.007 670 361.507 701.5 361.507" stroke="#7D71FF" stroke-linecap="round" stroke-dasharray="2 2"/>
<path d="M703 261C703.276 261 703.5 261.224 703.5 261.5C703.5 261.776 703.276 262 703 262V261ZM504.5 261H505.5V262H504.5V261ZM507.5 261H509.5V262H507.5V261ZM511.5 261H513.5V262H511.5V261ZM515.5 261H517.5V262H515.5V261ZM519.5 261H521.5V262H519.5V261ZM523.5 261H525.5V262H523.5V261ZM527.5 261H529.5V262H527.5V261ZM531.5 261H533.5V262H531.5V261ZM535.5 261H537.5V262H535.5V261ZM539.5 261H541.5V262H539.5V261ZM543.5 261H545.5V262H543.5V261ZM547.5 261H549.5V262H547.5V261ZM551.5 261H553.5V262H551.5V261ZM555.5 261H557.5V262H555.5V261ZM559.5 261H561.5V262H559.5V261ZM563.5 261H564.5V262H563.5V261ZM564.5 261H565.489V262H564.5V261ZM567.468 261H569.446V262H567.468V261ZM571.425 261H573.404V262H571.425V261ZM575.382 261H577.361V262H575.382V261ZM579.339 261H581.318V262H579.339V261ZM583.296 261H585.275V262H583.296V261ZM587.254 261H589.232V262H587.254V261ZM591.211 261H593.189V262H591.211V261ZM595.168 261H597.146V262H595.168V261ZM599.125 261H601.104V262H599.125V261ZM603.082 261H605.061V262H603.082V261ZM607.039 261H609.018V262H607.039V261ZM610.996 261H612.975V262H610.996V261ZM614.954 261H616.932V262H614.954V261ZM618.911 261H620.889V262H618.911V261ZM622.868 261H624.846V262H622.868V261ZM626.825 261H628.804V262H626.825V261ZM630.782 261H632.761V262H630.782V261ZM634.739 261H636.718V262H634.739V261ZM638.696 261H640.675V262H638.696V261ZM642.654 261H644.632V262H642.654V261ZM646.611 261H648.589V262H646.611V261ZM650.568 261H652.546V262H650.568V261ZM654.525 261H656.504V262H654.525V261ZM658.482 261H660.461V262H658.482V261ZM662.439 261H664.418V262H662.439V261ZM666.396 261H668.375V262H666.396V261ZM670.354 261H672.332V262H670.354V261ZM674.311 261H676.289V262H674.311V261ZM678.268 261H680.246V262H678.268V261ZM682.225 261H684.204V262H682.225V261ZM686.182 261H688.161V262H686.182V261ZM690.139 261H692.118V262H690.139V261ZM694.096 261H696.075V262H694.096V261ZM698.054 261H700.032V262H698.054V261ZM702.011 261H703V262H702.011V261Z" fill="#7D72FF"/>
<path d="M405 261.5C405.276 261.5 405.5 261.724 405.5 262C405.5 262.276 405.276 262.5 405 262.5V261.5ZM-8 261.5H-7V262.5H-8V261.5ZM-5 261.5H-3V262.5H-5V261.5ZM-1 261.5H1V262.5H-1V261.5ZM3 261.5H5V262.5H3V261.5ZM7 261.5H9V262.5H7V261.5ZM11 261.5H13V262.5H11V261.5ZM15 261.5H17V262.5H15V261.5ZM19 261.5H21V262.5H19V261.5ZM23 261.5H25V262.5H23V261.5ZM27 261.5H29V262.5H27V261.5ZM31 261.5H33V262.5H31V261.5ZM35 261.5H37V262.5H35V261.5ZM39 261.5H41V262.5H39V261.5ZM43 261.5H45V262.5H43V261.5ZM47 261.5H49V262.5H47V261.5ZM51 261.5H53V262.5H51V261.5ZM55 261.5H57V262.5H55V261.5ZM59 261.5H61V262.5H59V261.5ZM63 261.5H65V262.5H63V261.5ZM67 261.5H69V262.5H67V261.5ZM71 261.5H73V262.5H71V261.5ZM75 261.5H77V262.5H75V261.5ZM79 261.5H81V262.5H79V261.5ZM83 261.5H85V262.5H83V261.5ZM87 261.5H89V262.5H87V261.5ZM91 261.5H93V262.5H91V261.5ZM95 261.5H97V262.5H95V261.5ZM99 261.5H101V262.5H99V261.5ZM103 261.5H105V262.5H103V261.5ZM107 261.5H109V262.5H107V261.5ZM111 261.5H113V262.5H111V261.5ZM115 261.5H117V262.5H115V261.5ZM119 261.5H121V262.5H119V261.5ZM123 261.5H125V262.5H123V261.5ZM127 261.5H129V262.5H127V261.5ZM131 261.5H133V262.5H131V261.5ZM135 261.5H137V262.5H135V261.5ZM139 261.5H141V262.5H139V261.5ZM143 261.5H145V262.5H143V261.5ZM147 261.5H149V262.5H147V261.5ZM151 261.5H153V262.5H151V261.5ZM155 261.5H157V262.5H155V261.5ZM159 261.5H161V262.5H159V261.5ZM163 261.5H165V262.5H163V261.5ZM167 261.5H169V262.5H167V261.5ZM171 261.5H173V262.5H171V261.5ZM175 261.5H177V262.5H175V261.5ZM179 261.5H181V262.5H179V261.5ZM183 261.5H185V262.5H183V261.5ZM187 261.5H189V262.5H187V261.5ZM191 261.5H193V262.5H191V261.5ZM195 261.5H197V262.5H195V261.5ZM199 261.5H201V262.5H199V261.5ZM203 261.5H205V262.5H203V261.5ZM207 261.5H208V262.5H207V261.5ZM208 261.5H209.005V262.5H208V261.5ZM211.015 261.5H213.026V262.5H211.015V261.5ZM215.036 261.5H217.046V262.5H215.036V261.5ZM219.056 261.5H221.066V262.5H219.056V261.5ZM223.077 261.5H225.087V262.5H223.077V261.5ZM227.097 261.5H229.107V262.5H227.097V261.5ZM231.117 261.5H233.128V262.5H231.117V261.5ZM235.138 261.5H237.148V262.5H235.138V261.5ZM239.158 261.5H241.168V262.5H239.158V261.5ZM243.179 261.5H245.189V262.5H243.179V261.5ZM247.199 261.5H249.209V262.5H247.199V261.5ZM251.219 261.5H253.23V262.5H251.219V261.5ZM255.24 261.5H257.25V262.5H255.24V261.5ZM259.26 261.5H261.27V262.5H259.26V261.5ZM263.281 261.5H265.291V262.5H263.281V261.5ZM267.301 261.5H269.311V262.5H267.301V261.5ZM271.321 261.5H273.332V262.5H271.321V261.5ZM275.342 261.5H277.352V262.5H275.342V261.5ZM279.362 261.5H281.372V262.5H279.362V261.5ZM283.383 261.5H285.393V262.5H283.383V261.5ZM287.403 261.5H289.413V262.5H287.403V261.5ZM291.423 261.5H293.434V262.5H291.423V261.5ZM295.444 261.5H297.454V262.5H295.444V261.5ZM299.464 261.5H301.474V262.5H299.464V261.5ZM303.485 261.5H305.495V262.5H303.485V261.5ZM307.505 261.5H309.515V262.5H307.505V261.5ZM311.525 261.5H313.536V262.5H311.525V261.5ZM315.546 261.5H317.556V262.5H315.546V261.5ZM319.566 261.5H321.576V262.5H319.566V261.5ZM323.587 261.5H325.597V262.5H323.587V261.5ZM327.607 261.5H329.617V262.5H327.607V261.5ZM331.627 261.5H333.638V262.5H331.627V261.5ZM335.648 261.5H337.658V262.5H335.648V261.5ZM339.668 261.5H341.678V262.5H339.668V261.5ZM343.689 261.5H345.699V262.5H343.689V261.5ZM347.709 261.5H349.719V262.5H347.709V261.5ZM351.73 261.5H353.74V262.5H351.73V261.5ZM355.75 261.5H357.76V262.5H355.75V261.5ZM359.77 261.5H361.781V262.5H359.77V261.5ZM363.791 261.5H365.801V262.5H363.791V261.5ZM367.811 261.5H369.821V262.5H367.811V261.5ZM371.832 261.5H373.842V262.5H371.832V261.5ZM375.852 261.5H377.862V262.5H375.852V261.5ZM379.872 261.5H381.883V262.5H379.872V261.5ZM383.893 261.5H385.903V262.5H383.893V261.5ZM387.913 261.5H389.923V262.5H387.913V261.5ZM391.934 261.5H393.944V262.5H391.934V261.5ZM395.954 261.5H397.964V262.5H395.954V261.5ZM399.975 261.5H401.985V262.5H399.975V261.5ZM403.995 261.5H405V262.5H403.995V261.5Z" fill="url(#paint4_linear_6183_3149)"/>
<circle cx="454" cy="262" r="100" fill="url(#paint5_radial_6183_3149)" fill-opacity="0.3"/>
<circle cx="454" cy="262" r="100.25" stroke="white" stroke-opacity="0.5" stroke-width="0.5"/>
<circle cx="454.5" cy="261.5" r="75" fill="url(#paint6_radial_6183_3149)" fill-opacity="0.5"/>
<circle cx="454.5" cy="261.5" r="75.25" stroke="white" stroke-opacity="0.5" stroke-width="0.5"/>
<circle cx="454.5" cy="261.5" r="49.5" fill="url(#paint7_radial_6183_3149)"/>
<circle cx="454.5" cy="261.5" r="50" stroke="white" stroke-opacity="0.5"/>
<g clip-path="url(#clip1_6183_3149)">
<path d="M477.333 238.74V241.723C477.333 243.773 476.799 245.717 475.81 247.421L467.471 261.854L458.758 246.809C456.673 243.214 450.66 243.214 448.575 246.809L439.862 261.801L431.577 247.474C430.561 245.717 430 243.72 430 241.723V238.74C430 236.13 432.138 234 434.757 234H472.576C475.195 234 477.333 236.13 477.333 238.74Z" fill="#7B78FF"/>
<path d="M467.471 261.853L458.758 276.845C457.716 278.656 455.765 279.775 453.653 279.775C451.542 279.775 449.617 278.63 448.548 276.845L439.835 261.8L448.548 246.808C450.633 243.213 456.647 243.213 458.731 246.808L467.471 261.853Z" fill="#12429F"/>
<path d="M477.333 281.906V284.888C477.333 287.498 475.195 289.628 472.576 289.628H434.757C432.138 289.655 430 287.525 430 284.915V281.879C430 279.882 430.535 277.938 431.523 276.234L439.862 261.801L448.575 276.846C449.617 278.657 451.568 279.776 453.68 279.776C455.791 279.776 457.716 278.631 458.785 276.846L467.498 261.854L475.783 276.181C476.799 277.938 477.333 279.935 477.333 281.906Z" fill="#A0D2EB"/>
</g>
<rect x="517.627" y="459" width="51.3726" height="36.135" rx="9.57795" fill="url(#paint8_linear_6183_3149)"/>
<path d="M540.135 468.678H544.106L536.426 486.231H535.251L527.545 468.678H531.541L535.851 479.126L540.135 468.678ZM557.64 480.276C557.64 483.75 554.715 486.231 551.136 486.231C548.289 486.231 546.042 484.69 544.867 482.313L547.322 480.589C548.367 482.156 549.438 482.966 551.032 482.966C552.782 482.966 554.036 481.947 554.036 480.302C554.036 478.708 552.808 477.82 550.509 477.82H548.341V476.906L551.946 471.865H546.199V468.678H557.301V469.618L553.487 474.999C554.662 475.313 555.629 475.939 556.439 476.854C557.248 477.768 557.64 478.917 557.64 480.276Z" fill="white"/>
<path d="M385.227 485.202V471.278H379.756V468.937H393.335V471.278H387.839V485.202H385.227Z" fill="white"/>
<path d="M397.007 485.202V468.937H399.619V485.202H397.007Z" fill="white"/>
<path d="M419.518 468.666H420.405V485.202H417.793V475L413.135 481.111H412.248L407.566 474.975V485.202H404.954V468.666H405.865L412.692 477.76L419.518 468.666Z" fill="white"/>
<path d="M425.728 485.202V468.937H436.423V471.278H428.34V475.443H434.427V477.71H428.34V482.861H436.719V485.202H425.728Z" fill="white"/>
<path d="M439.832 481.949L441.681 480.544C442.864 482.27 444.285 483.132 445.944 483.132C446.782 483.132 447.456 482.927 447.965 482.516C448.491 482.105 448.754 481.555 448.754 480.865C448.754 480.306 448.581 479.871 448.236 479.559C447.891 479.23 447.267 478.852 446.363 478.425L444.564 477.587C443.299 477.012 442.346 476.38 441.705 475.69C441.081 474.983 440.769 474.112 440.769 473.077C440.769 471.779 441.262 470.72 442.248 469.898C443.233 469.077 444.449 468.666 445.895 468.666C447.029 468.666 448.055 468.929 448.975 469.455C449.912 469.98 450.635 470.687 451.144 471.574L449.32 472.979C448.433 471.664 447.291 471.007 445.895 471.007C445.172 471.007 444.581 471.18 444.121 471.525C443.66 471.87 443.43 472.354 443.43 472.979C443.447 473.274 443.48 473.521 443.529 473.718C443.595 473.899 443.751 474.096 443.997 474.309C444.244 474.507 444.416 474.63 444.515 474.679C444.613 474.728 444.934 474.893 445.476 475.172C445.575 475.221 445.648 475.262 445.698 475.295L447.521 476.133C448.885 476.757 449.871 477.423 450.479 478.129C451.103 478.836 451.415 479.715 451.415 480.766C451.415 482.163 450.898 483.296 449.863 484.167C448.844 485.038 447.546 485.473 445.969 485.473C444.654 485.473 443.463 485.161 442.395 484.537C441.328 483.912 440.473 483.05 439.832 481.949Z" fill="white"/>
<path d="M475.737 468.937H478.596L472.263 485.473H471.4L466.545 473.94L461.69 485.473H460.803L454.47 468.937H457.353L461.419 479.928L466.077 468.666H466.989L471.671 479.928L475.737 468.937Z" fill="white"/>
<path d="M491.699 485.202L490.541 482.491H483.222L482.064 485.202H479.279L486.45 468.666H487.337L494.509 485.202H491.699ZM489.605 480.249L486.894 473.521L484.158 480.249H489.605Z" fill="white"/>
<path d="M498.331 485.202V468.937H504.271C505.914 468.937 507.244 469.405 508.263 470.342C509.282 471.262 509.791 472.453 509.791 473.915C509.791 475.377 509.273 476.577 508.238 477.513C507.22 478.45 505.897 478.918 504.271 478.918H500.944V485.202H498.331ZM500.944 476.601H504.221C505.125 476.601 505.831 476.363 506.341 475.887C506.85 475.41 507.105 474.761 507.105 473.94C507.105 473.118 506.85 472.469 506.341 471.993C505.831 471.5 505.125 471.254 504.221 471.254H500.944V476.601Z" fill="white"/>
<g clip-path="url(#clip2_6183_3149)">
<path d="M371.147 462.554V464.516C371.147 465.866 370.796 467.145 370.145 468.266L364.658 477.764L358.924 467.863C357.552 465.498 353.595 465.498 352.223 467.863L346.49 477.729L341.038 468.301C340.369 467.145 340 465.831 340 464.516V462.554C340 460.836 341.407 459.435 343.131 459.435H368.017C369.74 459.435 371.147 460.836 371.147 462.554Z" fill="#7B78FF"/>
<path d="M364.658 477.764L358.924 487.629C358.238 488.821 356.954 489.557 355.565 489.557C354.175 489.557 352.909 488.804 352.206 487.629L346.472 477.729L352.206 467.863C353.577 465.497 357.535 465.497 358.906 467.863L364.658 477.764Z" fill="#12429F"/>
<path d="M371.147 490.959V492.921C371.147 494.639 369.74 496.04 368.017 496.04H343.131C341.407 496.058 340 494.656 340 492.939V490.941C340 489.627 340.352 488.348 341.002 487.226L346.49 477.729L352.223 487.629C352.909 488.821 354.193 489.557 355.582 489.557C356.972 489.557 358.238 488.803 358.942 487.629L364.675 477.764L370.127 487.191C370.796 488.348 371.147 489.662 371.147 490.959Z" fill="#A0D2EB"/>
</g>
<rect x="718" y="141" width="263" height="39" rx="19.5" fill="url(#paint9_linear_6183_3149)"/>
<rect x="718" y="242" width="263" height="39" rx="19.5" fill="url(#paint10_linear_6183_3149)"/>
<rect x="718" y="342" width="263" height="39" rx="19.5" fill="url(#paint11_linear_6183_3149)"/>
<path d="M732.91 161.451V156.42H734.665V161.581C734.665 162.829 735.445 163.531 736.55 163.531C737.681 163.531 738.435 162.829 738.435 161.581V156.42H740.19V161.451C740.19 163.726 738.63 165.156 736.55 165.156C734.444 165.156 732.91 163.726 732.91 161.451ZM747.825 161.009V165H746.083V161.243C746.083 160.502 745.602 159.995 744.887 159.995C744.172 159.995 743.665 160.502 743.665 161.243V165H741.91V158.565H743.522V159.15C743.977 158.695 744.64 158.422 745.407 158.422C746.902 158.422 747.825 159.449 747.825 161.009ZM749.515 165V158.565H751.27V165H749.515ZM749.268 156.225C749.268 155.601 749.762 155.133 750.386 155.133C751.01 155.133 751.517 155.601 751.517 156.225C751.517 156.836 751.01 157.304 750.386 157.304C749.762 157.304 749.268 156.836 749.268 156.225ZM755.06 157.668V158.565H756.477V160.047H755.06V165H753.305V160.047H752.395V158.565H753.305V157.512C753.305 155.9 754.241 155.094 755.788 155.094C756.126 155.094 756.451 155.146 756.75 155.237V156.706C756.555 156.68 756.386 156.667 756.23 156.667C755.437 156.667 755.06 156.94 755.06 157.668ZM757.647 165V158.565H759.402V165H757.647ZM757.4 156.225C757.4 155.601 757.894 155.133 758.518 155.133C759.142 155.133 759.649 155.601 759.649 156.225C759.649 156.836 759.142 157.304 758.518 157.304C757.894 157.304 757.4 156.836 757.4 156.225ZM767.058 162.374H762.547C762.755 163.193 763.418 163.648 764.354 163.648C764.991 163.648 765.589 163.427 766.148 162.998L766.876 164.194C766.109 164.831 765.251 165.156 764.302 165.156C762.313 165.195 760.74 163.648 760.779 161.789C760.74 159.93 762.287 158.383 764.146 158.422C765.927 158.422 767.175 159.735 767.175 161.412C767.175 161.724 767.136 162.049 767.058 162.374ZM762.547 161.139H765.472C765.459 160.346 764.848 159.839 764.081 159.839C763.34 159.839 762.742 160.346 762.547 161.139ZM773.225 155.25H774.98V165H773.368V164.207C772.939 164.818 772.185 165.156 771.301 165.156C769.507 165.156 768.181 163.726 768.181 161.789C768.181 159.852 769.507 158.422 771.301 158.422C772.12 158.422 772.757 158.682 773.225 159.189V155.25ZM773.251 161.789C773.251 160.645 772.51 160.008 771.626 160.008C770.69 160.008 769.962 160.723 769.962 161.776C769.962 162.855 770.677 163.557 771.626 163.557C772.51 163.557 773.251 162.946 773.251 161.789ZM780.481 165V156.42H782.236V163.414H785.993V165H780.481ZM787.182 165V158.565H788.937V165H787.182ZM786.935 156.225C786.935 155.601 787.429 155.133 788.053 155.133C788.677 155.133 789.184 155.601 789.184 156.225C789.184 156.836 788.677 157.304 788.053 157.304C787.429 157.304 786.935 156.836 786.935 156.225ZM795.496 158.565H797.108V167.34H795.353V164.376C794.885 164.883 794.209 165.156 793.429 165.156C791.635 165.156 790.309 163.7 790.309 161.776C790.309 159.852 791.635 158.422 793.429 158.422C794.313 158.422 795.067 158.76 795.496 159.371V158.565ZM795.379 161.776C795.379 160.619 794.638 160.008 793.754 160.008C792.805 160.008 792.09 160.71 792.09 161.789C792.09 162.842 792.818 163.557 793.754 163.557C794.638 163.557 795.379 162.92 795.379 161.776ZM798.784 162.166V158.565H800.539V162.309C800.539 163.05 801.046 163.544 801.761 163.544C802.437 163.544 802.957 163.05 802.957 162.309V158.565H804.712V162.166C804.712 163.96 803.438 165.156 801.761 165.156C800.045 165.156 798.784 163.96 798.784 162.166ZM806.39 165V158.565H808.145V165H806.39ZM806.143 156.225C806.143 155.601 806.637 155.133 807.261 155.133C807.885 155.133 808.392 155.601 808.392 156.225C808.392 156.836 807.885 157.304 807.261 157.304C806.637 157.304 806.143 156.836 806.143 156.225ZM814.561 155.25H816.316V165H814.704V164.207C814.275 164.818 813.521 165.156 812.637 165.156C810.843 165.156 809.517 163.726 809.517 161.789C809.517 159.852 810.843 158.422 812.637 158.422C813.456 158.422 814.093 158.682 814.561 159.189V155.25ZM814.587 161.789C814.587 160.645 813.846 160.008 812.962 160.008C812.026 160.008 811.298 160.723 811.298 161.776C811.298 162.855 812.013 163.557 812.962 163.557C813.846 163.557 814.587 162.946 814.587 161.789ZM818.057 165V158.565H819.812V165H818.057ZM817.81 156.225C817.81 155.601 818.304 155.133 818.928 155.133C819.552 155.133 820.059 155.601 820.059 156.225C820.059 156.836 819.552 157.304 818.928 157.304C818.304 157.304 817.81 156.836 817.81 156.225ZM825.682 163.531V165C825.266 165.104 824.863 165.156 824.473 165.156C822.848 165.156 821.899 164.35 821.899 162.738V160.047H820.885V158.565H821.899V156.94H823.654V158.565H825.474V160.047H823.654V162.582C823.654 163.31 824.018 163.583 824.85 163.583C824.954 163.583 825.227 163.57 825.682 163.531ZM831.35 158.565H833.196L830.115 165.559C829.53 166.898 828.75 167.496 827.554 167.496C827.19 167.496 826.813 167.444 826.423 167.34V165.871C826.826 165.91 827.073 165.923 827.177 165.923C827.801 165.923 828.217 165.728 828.516 165.052L828.711 164.61L826.241 158.565H828.1L829.673 162.79L831.35 158.565ZM842.869 165L842.388 163.882H838.878L838.397 165H836.512L840.347 156.264H840.932L844.754 165H842.869ZM841.777 162.439L840.633 159.54L839.489 162.439H841.777ZM845.216 161.776C845.216 159.891 846.75 158.422 848.661 158.422C849.922 158.422 850.897 159.02 851.456 160.008L850.234 160.957C849.831 160.372 849.363 160.021 848.687 160.021C847.699 160.021 846.997 160.775 846.997 161.776C846.997 162.803 847.699 163.544 848.687 163.544C849.35 163.544 849.818 163.206 850.234 162.621L851.456 163.557C850.897 164.545 849.909 165.156 848.661 165.156C846.776 165.195 845.19 163.635 845.216 161.776ZM856.705 158.565V160.112H856.237C855.184 160.112 854.508 160.684 854.508 161.789V165H852.753V158.565H854.365V159.332C854.794 158.799 855.418 158.487 856.133 158.487C856.354 158.487 856.536 158.513 856.705 158.565ZM857.302 161.776C857.263 159.943 858.862 158.383 860.747 158.422C862.632 158.396 864.244 159.943 864.205 161.776C864.244 163.609 862.619 165.182 860.734 165.143C858.849 165.182 857.263 163.609 857.302 161.776ZM862.411 161.789C862.411 160.788 861.696 160.021 860.747 160.021C859.772 160.021 859.083 160.762 859.083 161.789C859.083 162.79 859.772 163.531 860.747 163.531C861.696 163.531 862.411 162.79 862.411 161.789ZM864.99 163.908L865.874 162.842C866.433 163.427 867.044 163.713 867.681 163.713C868.149 163.713 868.5 163.531 868.5 163.18C868.5 162.907 868.318 162.803 867.837 162.595L867.148 162.309C865.965 161.828 865.393 161.295 865.393 160.346C865.393 159.137 866.355 158.422 867.759 158.422C868.721 158.422 869.488 158.747 870.073 159.384L869.189 160.463C868.76 160.06 868.279 159.852 867.746 159.852C867.317 159.852 867.057 160.008 867.057 160.307C867.057 160.554 867.226 160.671 867.733 160.879L868.357 161.139C869.605 161.646 870.164 162.153 870.164 163.102C870.164 163.739 869.93 164.246 869.449 164.61C868.981 164.974 868.383 165.156 867.655 165.156C866.524 165.156 865.575 164.688 864.99 163.908ZM870.906 163.908L871.79 162.842C872.349 163.427 872.96 163.713 873.597 163.713C874.065 163.713 874.416 163.531 874.416 163.18C874.416 162.907 874.234 162.803 873.753 162.595L873.064 162.309C871.881 161.828 871.309 161.295 871.309 160.346C871.309 159.137 872.271 158.422 873.675 158.422C874.637 158.422 875.404 158.747 875.989 159.384L875.105 160.463C874.676 160.06 874.195 159.852 873.662 159.852C873.233 159.852 872.973 160.008 872.973 160.307C872.973 160.554 873.142 160.671 873.649 160.879L874.273 161.139C875.521 161.646 876.08 162.153 876.08 163.102C876.08 163.739 875.846 164.246 875.365 164.61C874.897 164.974 874.299 165.156 873.571 165.156C872.44 165.156 871.491 164.688 870.906 163.908ZM888.994 156.264H889.566V165H887.811V160.424L885.653 163.128H885.081L882.923 160.424V165H881.168V156.264H881.74L885.367 160.905L888.994 156.264ZM896.754 161.178V165H895.142V164.376C894.674 164.857 893.998 165.156 893.179 165.156C891.814 165.156 890.956 164.363 890.956 163.232C890.956 162.075 891.892 161.36 893.387 161.36H894.999V161.074C894.999 160.359 894.583 159.943 893.803 159.943C893.14 159.943 892.672 160.216 892.1 160.827L891.19 159.748C891.931 158.864 892.867 158.422 893.998 158.422C895.675 158.422 896.754 159.397 896.754 161.178ZM894.999 162.595V162.517H893.621C893.049 162.517 892.724 162.738 892.724 163.167C892.724 163.596 893.088 163.869 893.647 163.869C894.414 163.869 894.999 163.336 894.999 162.595ZM902.577 163.531V165C902.161 165.104 901.758 165.156 901.368 165.156C899.743 165.156 898.794 164.35 898.794 162.738V160.047H897.78V158.565H898.794V156.94H900.549V158.565H902.369V160.047H900.549V162.582C900.549 163.31 900.913 163.583 901.745 163.583C901.849 163.583 902.122 163.57 902.577 163.531ZM903.786 162.166V158.565H905.541V162.309C905.541 163.05 906.048 163.544 906.763 163.544C907.439 163.544 907.959 163.05 907.959 162.309V158.565H909.714V162.166C909.714 163.96 908.44 165.156 906.763 165.156C905.047 165.156 903.786 163.96 903.786 162.166ZM915.344 158.565V160.112H914.876C913.823 160.112 913.147 160.684 913.147 161.789V165H911.392V158.565H913.004V159.332C913.433 158.799 914.057 158.487 914.772 158.487C914.993 158.487 915.175 158.513 915.344 158.565ZM916.433 165V158.565H918.188V165H916.433ZM916.186 156.225C916.186 155.601 916.68 155.133 917.304 155.133C917.928 155.133 918.435 155.601 918.435 156.225C918.435 156.836 917.928 157.304 917.304 157.304C916.68 157.304 916.186 156.836 916.186 156.225ZM924.058 163.531V165C923.642 165.104 923.239 165.156 922.849 165.156C921.224 165.156 920.275 164.35 920.275 162.738V160.047H919.261V158.565H920.275V156.94H922.03V158.565H923.85V160.047H922.03V162.582C922.03 163.31 922.394 163.583 923.226 163.583C923.33 163.583 923.603 163.57 924.058 163.531ZM925.332 165V158.565H927.087V165H925.332ZM925.085 156.225C925.085 155.601 925.579 155.133 926.203 155.133C926.827 155.133 927.334 155.601 927.334 156.225C927.334 156.836 926.827 157.304 926.203 157.304C925.579 157.304 925.085 156.836 925.085 156.225ZM934.738 162.374H930.227C930.435 163.193 931.098 163.648 932.034 163.648C932.671 163.648 933.269 163.427 933.828 162.998L934.556 164.194C933.789 164.831 932.931 165.156 931.982 165.156C929.993 165.195 928.42 163.648 928.459 161.789C928.42 159.93 929.967 158.383 931.826 158.422C933.607 158.422 934.855 159.735 934.855 161.412C934.855 161.724 934.816 162.049 934.738 162.374ZM930.227 161.139H933.152C933.139 160.346 932.528 159.839 931.761 159.839C931.02 159.839 930.422 160.346 930.227 161.139ZM935.64 163.908L936.524 162.842C937.083 163.427 937.694 163.713 938.331 163.713C938.799 163.713 939.15 163.531 939.15 163.18C939.15 162.907 938.968 162.803 938.487 162.595L937.798 162.309C936.615 161.828 936.043 161.295 936.043 160.346C936.043 159.137 937.005 158.422 938.409 158.422C939.371 158.422 940.138 158.747 940.723 159.384L939.839 160.463C939.41 160.06 938.929 159.852 938.396 159.852C937.967 159.852 937.707 160.008 937.707 160.307C937.707 160.554 937.876 160.671 938.383 160.879L939.007 161.139C940.255 161.646 940.814 162.153 940.814 163.102C940.814 163.739 940.58 164.246 940.099 164.61C939.631 164.974 939.033 165.156 938.305 165.156C937.174 165.156 936.225 164.688 935.64 163.908Z" fill="white"/>
<path d="M734.925 266V259.006H732.182V257.42H739.436V259.006H736.68V266H734.925ZM740.475 266V259.565H742.23V266H740.475ZM740.228 257.225C740.228 256.601 740.722 256.133 741.346 256.133C741.97 256.133 742.477 256.601 742.477 257.225C742.477 257.836 741.97 258.304 741.346 258.304C740.722 258.304 740.228 257.836 740.228 257.225ZM753.886 262.009V266H752.131V262.256C752.131 261.489 751.676 261.008 750.987 261.008C750.298 261.008 749.804 261.502 749.804 262.217V266H748.049V262.256C748.049 261.489 747.594 261.008 746.905 261.008C746.19 261.008 745.722 261.489 745.722 262.256V266H743.967V259.565H745.579V260.137C746.008 259.682 746.658 259.422 747.399 259.422C748.244 259.422 748.881 259.734 749.31 260.345C749.817 259.773 750.571 259.422 751.455 259.422C752.963 259.422 753.886 260.449 753.886 262.009ZM761.473 263.374H756.962C757.17 264.193 757.833 264.648 758.769 264.648C759.406 264.648 760.004 264.427 760.563 263.998L761.291 265.194C760.524 265.831 759.666 266.156 758.717 266.156C756.728 266.195 755.155 264.648 755.194 262.789C755.155 260.93 756.702 259.383 758.561 259.422C760.342 259.422 761.59 260.735 761.59 262.412C761.59 262.724 761.551 263.049 761.473 263.374ZM756.962 262.139H759.887C759.874 261.346 759.263 260.839 758.496 260.839C757.755 260.839 757.157 261.346 756.962 262.139ZM773.362 263.478C773.362 264.96 772.192 266 770.541 266H766.719V257.42H769.761C771.347 257.42 772.478 258.408 772.478 259.812C772.478 260.436 772.27 260.956 771.841 261.359C772.79 261.71 773.362 262.438 773.362 263.478ZM769.618 258.928H768.409V260.891H769.618C770.333 260.891 770.736 260.514 770.736 259.903C770.736 259.292 770.333 258.928 769.618 258.928ZM771.633 263.413C771.633 262.75 771.178 262.334 770.411 262.334H768.409V264.492H770.411C771.178 264.492 771.633 264.089 771.633 263.413ZM774.313 262.776C774.274 260.943 775.873 259.383 777.758 259.422C779.643 259.396 781.255 260.943 781.216 262.776C781.255 264.609 779.63 266.182 777.745 266.143C775.86 266.182 774.274 264.609 774.313 262.776ZM779.422 262.789C779.422 261.788 778.707 261.021 777.758 261.021C776.783 261.021 776.094 261.762 776.094 262.789C776.094 263.79 776.783 264.531 777.758 264.531C778.707 264.531 779.422 263.79 779.422 262.789ZM782.521 263.166V259.565H784.276V263.309C784.276 264.05 784.783 264.544 785.498 264.544C786.174 264.544 786.694 264.05 786.694 263.309V259.565H788.449V263.166C788.449 264.96 787.175 266.156 785.498 266.156C783.782 266.156 782.521 264.96 782.521 263.166ZM796.042 262.009V266H794.3V262.243C794.3 261.502 793.819 260.995 793.104 260.995C792.389 260.995 791.882 261.502 791.882 262.243V266H790.127V259.565H791.739V260.15C792.194 259.695 792.857 259.422 793.624 259.422C795.119 259.422 796.042 260.449 796.042 262.009ZM802.411 256.25H804.166V266H802.554V265.207C802.125 265.818 801.371 266.156 800.487 266.156C798.693 266.156 797.367 264.726 797.367 262.789C797.367 260.852 798.693 259.422 800.487 259.422C801.306 259.422 801.943 259.682 802.411 260.189V256.25ZM802.437 262.789C802.437 261.645 801.696 261.008 800.812 261.008C799.876 261.008 799.148 261.723 799.148 262.776C799.148 263.855 799.863 264.557 800.812 264.557C801.696 264.557 802.437 263.946 802.437 262.789ZM810.957 266V259.006H808.214V257.42H815.468V259.006H812.712V266H810.957ZM815.204 262.776C815.165 260.943 816.764 259.383 818.649 259.422C820.534 259.396 822.146 260.943 822.107 262.776C822.146 264.609 820.521 266.182 818.636 266.143C816.751 266.182 815.165 264.609 815.204 262.776ZM820.313 262.789C820.313 261.788 819.598 261.021 818.649 261.021C817.674 261.021 816.985 261.762 816.985 262.789C816.985 263.79 817.674 264.531 818.649 264.531C819.598 264.531 820.313 263.79 820.313 262.789ZM829.821 266H827.819L825.232 262.438V266H823.477V256.25H825.232V262.308L827.546 259.565H829.626L827.208 262.412L829.821 266ZM836.413 263.374H831.902C832.11 264.193 832.773 264.648 833.709 264.648C834.346 264.648 834.944 264.427 835.503 263.998L836.231 265.194C835.464 265.831 834.606 266.156 833.657 266.156C831.668 266.195 830.095 264.648 830.134 262.789C830.095 260.93 831.642 259.383 833.501 259.422C835.282 259.422 836.53 260.735 836.53 262.412C836.53 262.724 836.491 263.049 836.413 263.374ZM831.902 262.139H834.827C834.814 261.346 834.203 260.839 833.436 260.839C832.695 260.839 832.097 261.346 831.902 262.139ZM843.814 262.009V266H842.072V262.243C842.072 261.502 841.591 260.995 840.876 260.995C840.161 260.995 839.654 261.502 839.654 262.243V266H837.899V259.565H839.511V260.15C839.966 259.695 840.629 259.422 841.396 259.422C842.891 259.422 843.814 260.449 843.814 262.009ZM849.16 262.061C849.16 259.006 850.33 257.134 851.994 256.393L852.683 257.446C851.487 258.239 850.694 259.604 850.694 262.061C850.694 264.505 851.487 265.87 852.683 266.663L851.994 267.716C850.33 266.975 849.16 265.09 849.16 262.061ZM855.949 266V259.006H853.206V257.42H860.46V259.006H857.704V266H855.949ZM868.26 263.478C868.26 264.96 867.09 266 865.439 266H861.617V257.42H864.659C866.245 257.42 867.376 258.408 867.376 259.812C867.376 260.436 867.168 260.956 866.739 261.359C867.688 261.71 868.26 262.438 868.26 263.478ZM864.516 258.928H863.307V260.891H864.516C865.231 260.891 865.634 260.514 865.634 259.903C865.634 259.292 865.231 258.928 864.516 258.928ZM866.531 263.413C866.531 262.75 866.076 262.334 865.309 262.334H863.307V264.492H865.309C866.076 264.492 866.531 264.089 866.531 263.413ZM871.298 266V259.006H868.555V257.42H875.809V259.006H873.053V266H871.298ZM877.018 267.716L876.316 266.663C877.512 265.87 878.318 264.505 878.318 262.061C878.318 259.604 877.525 258.239 876.316 257.446L877.018 256.393C877.837 256.77 878.513 257.42 879.046 258.369C879.579 259.305 879.839 260.54 879.839 262.061C879.839 263.582 879.579 264.804 879.046 265.753C878.513 266.689 877.837 267.339 877.018 267.716ZM885.357 266V257.42H888.581C890.375 257.42 891.675 258.538 891.675 260.189C891.675 261.827 890.375 262.971 888.581 262.971H887.112V266H885.357ZM887.112 261.437H888.581C889.4 261.437 889.881 260.93 889.881 260.189C889.881 259.461 889.374 258.967 888.581 258.967H887.112V261.437ZM896.911 259.565V261.112H896.443C895.39 261.112 894.714 261.684 894.714 262.789V266H892.959V259.565H894.571V260.332C895 259.799 895.624 259.487 896.339 259.487C896.56 259.487 896.742 259.513 896.911 259.565ZM897.508 262.776C897.469 260.943 899.068 259.383 900.953 259.422C902.838 259.396 904.45 260.943 904.411 262.776C904.45 264.609 902.825 266.182 900.94 266.143C899.055 266.182 897.469 264.609 897.508 262.776ZM902.617 262.789C902.617 261.788 901.902 261.021 900.953 261.021C899.978 261.021 899.289 261.762 899.289 262.789C899.289 263.79 899.978 264.531 900.953 264.531C901.902 264.531 902.617 263.79 902.617 262.789ZM909.915 264.531V266C909.499 266.104 909.096 266.156 908.706 266.156C907.081 266.156 906.132 265.35 906.132 263.738V261.047H905.118V259.565H906.132V257.94H907.887V259.565H909.707V261.047H907.887V263.582C907.887 264.31 908.251 264.583 909.083 264.583C909.187 264.583 909.46 264.57 909.915 264.531ZM910.698 262.776C910.659 260.943 912.258 259.383 914.143 259.422C916.028 259.396 917.64 260.943 917.601 262.776C917.64 264.609 916.015 266.182 914.13 266.143C912.245 266.182 910.659 264.609 910.698 262.776ZM915.807 262.789C915.807 261.788 915.092 261.021 914.143 261.021C913.168 261.021 912.479 261.762 912.479 262.789C912.479 263.79 913.168 264.531 914.143 264.531C915.092 264.531 915.807 263.79 915.807 262.789ZM918.608 262.776C918.608 260.891 920.142 259.422 922.053 259.422C923.314 259.422 924.289 260.02 924.848 261.008L923.626 261.957C923.223 261.372 922.755 261.021 922.079 261.021C921.091 261.021 920.389 261.775 920.389 262.776C920.389 263.803 921.091 264.544 922.079 264.544C922.742 264.544 923.21 264.206 923.626 263.621L924.848 264.557C924.289 265.545 923.301 266.156 922.053 266.156C920.168 266.195 918.582 264.635 918.608 262.776ZM925.653 262.776C925.614 260.943 927.213 259.383 929.098 259.422C930.983 259.396 932.595 260.943 932.556 262.776C932.595 264.609 930.97 266.182 929.085 266.143C927.2 266.182 925.614 264.609 925.653 262.776ZM930.762 262.789C930.762 261.788 930.047 261.021 929.098 261.021C928.123 261.021 927.434 261.762 927.434 262.789C927.434 263.79 928.123 264.531 929.098 264.531C930.047 264.531 930.762 263.79 930.762 262.789ZM933.927 266V256.25H935.682V266H933.927Z" fill="white"/>
<path d="M741.526 366L741.045 364.882H737.535L737.054 366H735.169L739.004 357.264H739.589L743.411 366H741.526ZM740.434 363.439L739.29 360.54L738.146 363.439H740.434ZM752.409 357.264H752.981V366H751.226V361.424L749.068 364.128H748.496L746.338 361.424V366H744.583V357.264H745.155L748.782 361.905L752.409 357.264ZM762.781 357.264H763.353V366H761.598V361.424L759.44 364.128H758.868L756.71 361.424V366H754.955V357.264H755.527L759.154 361.905L762.781 357.264ZM775.613 363.478C775.613 364.96 774.443 366 772.792 366H768.97V357.42H772.012C773.598 357.42 774.729 358.408 774.729 359.812C774.729 360.436 774.521 360.956 774.092 361.359C775.041 361.71 775.613 362.438 775.613 363.478ZM771.869 358.928H770.66V360.891H771.869C772.584 360.891 772.987 360.514 772.987 359.903C772.987 359.292 772.584 358.928 771.869 358.928ZM773.884 363.413C773.884 362.75 773.429 362.334 772.662 362.334H770.66V364.492H772.662C773.429 364.492 773.884 364.089 773.884 363.413ZM776.564 362.776C776.525 360.943 778.124 359.383 780.009 359.422C781.894 359.396 783.506 360.943 783.467 362.776C783.506 364.609 781.881 366.182 779.996 366.143C778.111 366.182 776.525 364.609 776.564 362.776ZM781.673 362.789C781.673 361.788 780.958 361.021 780.009 361.021C779.034 361.021 778.345 361.762 778.345 362.789C778.345 363.79 779.034 364.531 780.009 364.531C780.958 364.531 781.673 363.79 781.673 362.789ZM784.473 362.776C784.434 360.943 786.033 359.383 787.918 359.422C789.803 359.396 791.415 360.943 791.376 362.776C791.415 364.609 789.79 366.182 787.905 366.143C786.02 366.182 784.434 364.609 784.473 362.776ZM789.582 362.789C789.582 361.788 788.867 361.021 787.918 361.021C786.943 361.021 786.254 361.762 786.254 362.789C786.254 363.79 786.943 364.531 787.918 364.531C788.867 364.531 789.582 363.79 789.582 362.789ZM799.09 366H797.088L794.501 362.438V366H792.746V356.25H794.501V362.308L796.815 359.565H798.895L796.477 362.412L799.09 366ZM803.677 362.061C803.677 359.006 804.847 357.134 806.511 356.393L807.2 357.446C806.004 358.239 805.211 359.604 805.211 362.061C805.211 364.505 806.004 365.87 807.2 366.663L806.511 367.716C804.847 366.975 803.677 365.09 803.677 362.061ZM814.067 366L813.586 364.882H810.076L809.595 366H807.71L811.545 357.264H812.13L815.952 366H814.067ZM812.975 363.439L811.831 360.54L810.687 363.439H812.975ZM824.95 357.264H825.522V366H823.767V361.424L821.609 364.128H821.037L818.879 361.424V366H817.124V357.264H817.696L821.323 361.905L824.95 357.264ZM835.322 357.264H835.894V366H834.139V361.424L831.981 364.128H831.409L829.251 361.424V366H827.496V357.264H828.068L831.695 361.905L835.322 357.264ZM844.511 363.478C844.511 364.96 843.341 366 841.69 366H837.868V357.42H840.91C842.496 357.42 843.627 358.408 843.627 359.812C843.627 360.436 843.419 360.956 842.99 361.359C843.939 361.71 844.511 362.438 844.511 363.478ZM840.767 358.928H839.558V360.891H840.767C841.482 360.891 841.885 360.514 841.885 359.903C841.885 359.292 841.482 358.928 840.767 358.928ZM842.782 363.413C842.782 362.75 842.327 362.334 841.56 362.334H839.558V364.492H841.56C842.327 364.492 842.782 364.089 842.782 363.413ZM845.74 367.716L845.038 366.663C846.234 365.87 847.04 364.505 847.04 362.061C847.04 359.604 846.247 358.239 845.038 357.446L845.74 356.393C846.559 356.77 847.235 357.42 847.768 358.369C848.301 359.305 848.561 360.54 848.561 362.061C848.561 363.582 848.301 364.804 847.768 365.753C847.235 366.689 846.559 367.339 845.74 367.716ZM854.08 366V357.42H855.835V364.414H859.592V366H854.08ZM860.78 366V359.565H862.535V366H860.78ZM860.533 357.225C860.533 356.601 861.027 356.133 861.651 356.133C862.275 356.133 862.782 356.601 862.782 357.225C862.782 357.836 862.275 358.304 861.651 358.304C861.027 358.304 860.533 357.836 860.533 357.225ZM869.094 359.565H870.706V368.34H868.951V365.376C868.483 365.883 867.807 366.156 867.027 366.156C865.233 366.156 863.907 364.7 863.907 362.776C863.907 360.852 865.233 359.422 867.027 359.422C867.911 359.422 868.665 359.76 869.094 360.371V359.565ZM868.977 362.776C868.977 361.619 868.236 361.008 867.352 361.008C866.403 361.008 865.688 361.71 865.688 362.789C865.688 363.842 866.416 364.557 867.352 364.557C868.236 364.557 868.977 363.92 868.977 362.776ZM872.382 363.166V359.565H874.137V363.309C874.137 364.05 874.644 364.544 875.359 364.544C876.035 364.544 876.555 364.05 876.555 363.309V359.565H878.31V363.166C878.31 364.96 877.036 366.156 875.359 366.156C873.643 366.156 872.382 364.96 872.382 363.166ZM879.988 366V359.565H881.743V366H879.988ZM879.741 357.225C879.741 356.601 880.235 356.133 880.859 356.133C881.483 356.133 881.99 356.601 881.99 357.225C881.99 357.836 881.483 358.304 880.859 358.304C880.235 358.304 879.741 357.836 879.741 357.225ZM888.159 356.25H889.914V366H888.302V365.207C887.873 365.818 887.119 366.156 886.235 366.156C884.441 366.156 883.115 364.726 883.115 362.789C883.115 360.852 884.441 359.422 886.235 359.422C887.054 359.422 887.691 359.682 888.159 360.189V356.25ZM888.185 362.789C888.185 361.645 887.444 361.008 886.56 361.008C885.624 361.008 884.896 361.723 884.896 362.776C884.896 363.855 885.611 364.557 886.56 364.557C887.444 364.557 888.185 363.946 888.185 362.789ZM891.655 366V359.565H893.41V366H891.655ZM891.408 357.225C891.408 356.601 891.902 356.133 892.526 356.133C893.15 356.133 893.657 356.601 893.657 357.225C893.657 357.836 893.15 358.304 892.526 358.304C891.902 358.304 891.408 357.836 891.408 357.225ZM899.28 364.531V366C898.864 366.104 898.461 366.156 898.071 366.156C896.446 366.156 895.497 365.35 895.497 363.738V361.047H894.483V359.565H895.497V357.94H897.252V359.565H899.072V361.047H897.252V363.582C897.252 364.31 897.616 364.583 898.448 364.583C898.552 364.583 898.825 364.57 899.28 364.531ZM904.949 359.565H906.795L903.714 366.559C903.129 367.898 902.349 368.496 901.153 368.496C900.789 368.496 900.412 368.444 900.022 368.34V366.871C900.425 366.91 900.672 366.923 900.776 366.923C901.4 366.923 901.816 366.728 902.115 366.052L902.31 365.61L899.84 359.565H901.699L903.272 363.79L904.949 359.565ZM911.577 366V357.42H914.385C917.102 357.394 919.104 359.149 919.065 361.684C919.104 364.167 917.102 366.039 914.385 366H911.577ZM913.332 364.414H914.372C916.101 364.414 917.258 363.335 917.258 361.684C917.258 360.02 916.127 359.006 914.372 359.006H913.332V364.414ZM926.35 363.374H921.839C922.047 364.193 922.71 364.648 923.646 364.648C924.283 364.648 924.881 364.427 925.44 363.998L926.168 365.194C925.401 365.831 924.543 366.156 923.594 366.156C921.605 366.195 920.032 364.648 920.071 362.789C920.032 360.93 921.579 359.383 923.438 359.422C925.219 359.422 926.467 360.735 926.467 362.412C926.467 362.724 926.428 363.049 926.35 363.374ZM921.839 362.139H924.764C924.751 361.346 924.14 360.839 923.373 360.839C922.632 360.839 922.034 361.346 921.839 362.139ZM927.252 364.908L928.136 363.842C928.695 364.427 929.306 364.713 929.943 364.713C930.411 364.713 930.762 364.531 930.762 364.18C930.762 363.907 930.58 363.803 930.099 363.595L929.41 363.309C928.227 362.828 927.655 362.295 927.655 361.346C927.655 360.137 928.617 359.422 930.021 359.422C930.983 359.422 931.75 359.747 932.335 360.384L931.451 361.463C931.022 361.06 930.541 360.852 930.008 360.852C929.579 360.852 929.319 361.008 929.319 361.307C929.319 361.554 929.488 361.671 929.995 361.879L930.619 362.139C931.867 362.646 932.426 363.153 932.426 364.102C932.426 364.739 932.192 365.246 931.711 365.61C931.243 365.974 930.645 366.156 929.917 366.156C928.786 366.156 927.837 365.688 927.252 364.908ZM933.753 366V359.565H935.508V366H933.753ZM933.506 357.225C933.506 356.601 934 356.133 934.624 356.133C935.248 356.133 935.755 356.601 935.755 357.225C935.755 357.836 935.248 358.304 934.624 358.304C934 358.304 933.506 357.836 933.506 357.225ZM942.093 359.565H943.705V365.285C943.705 367.378 942.392 368.496 940.377 368.496C939.168 368.496 938.115 368.093 937.218 367.3L938.141 366.078C938.856 366.611 939.454 366.91 940.234 366.91C941.274 366.91 941.95 366.39 941.95 365.389V365.038C941.482 365.545 940.806 365.805 939.987 365.805C938.206 365.805 936.906 364.492 936.906 362.607C936.906 360.696 938.232 359.422 939.987 359.422C940.91 359.422 941.638 359.76 942.093 360.371V359.565ZM941.976 362.581C941.976 361.476 941.248 360.917 940.351 360.917C939.402 360.917 938.687 361.554 938.687 362.594C938.687 363.634 939.415 364.323 940.351 364.323C941.235 364.323 941.976 363.686 941.976 362.581ZM951.36 362.009V366H949.618V362.243C949.618 361.502 949.137 360.995 948.422 360.995C947.707 360.995 947.2 361.502 947.2 362.243V366H945.445V359.565H947.057V360.15C947.512 359.695 948.175 359.422 948.942 359.422C950.437 359.422 951.36 360.449 951.36 362.009Z" fill="white"/>
</g>
<defs>
<linearGradient id="paint0_linear_6183_3149" x1="669" y1="166.5" x2="480.5" y2="266" gradientUnits="userSpaceOnUse">
<stop stop-color="#7D71FF"/>
<stop offset="1" stop-opacity="0"/>
</linearGradient>
<linearGradient id="paint1_linear_6183_3149" x1="488.5" y1="256.5" x2="697.5" y2="364.5" gradientUnits="userSpaceOnUse">
<stop stop-opacity="0"/>
<stop offset="1" stop-color="#7D71FF"/>
</linearGradient>
<linearGradient id="paint2_linear_6183_3149" x1="703" y1="261" x2="487" y2="260" gradientUnits="userSpaceOnUse">
<stop stop-color="#7D72FF"/>
<stop offset="0.965" stop-opacity="0"/>
</linearGradient>
<linearGradient id="paint3_linear_6183_3149" x1="405.5" y1="261.5" x2="-13.5" y2="262" gradientUnits="userSpaceOnUse">
<stop stop-color="#6A6A6A"/>
<stop offset="0.965" stop-opacity="0"/>
</linearGradient>
<linearGradient id="paint4_linear_6183_3149" x1="405" y1="261.5" x2="-8" y2="261.5" gradientUnits="userSpaceOnUse">
<stop offset="0.207393" stop-color="#767676"/>
<stop offset="1" stop-opacity="0"/>
</linearGradient>
<radialGradient id="paint5_radial_6183_3149" cx="0" cy="0" r="1" gradientUnits="userSpaceOnUse" gradientTransform="translate(454 262) rotate(90) scale(100)">
<stop stop-color="#7B78FF"/>
<stop offset="1" stop-color="#050034"/>
</radialGradient>
<radialGradient id="paint6_radial_6183_3149" cx="0" cy="0" r="1" gradientUnits="userSpaceOnUse" gradientTransform="translate(454.5 261.5) rotate(90) scale(75)">
<stop stop-color="#7B78FF"/>
<stop offset="1" stop-color="#050034"/>
</radialGradient>
<radialGradient id="paint7_radial_6183_3149" cx="0" cy="0" r="1" gradientUnits="userSpaceOnUse" gradientTransform="translate(454.5 261.5) rotate(90) scale(49.5)">
<stop stop-color="#7B78FF"/>
<stop offset="1" stop-color="#050034"/>
</radialGradient>
<linearGradient id="paint8_linear_6183_3149" x1="543.314" y1="459" x2="543.314" y2="495.135" gradientUnits="userSpaceOnUse">
<stop stop-color="#7F7CFF"/>
<stop offset="0.330578" stop-color="#5C58FF"/>
<stop offset="1" stop-color="#373599"/>
</linearGradient>
<linearGradient id="paint9_linear_6183_3149" x1="718" y1="160.5" x2="981" y2="160.5" gradientUnits="userSpaceOnUse">
<stop stop-color="#7D71FF"/>
<stop offset="1" stop-opacity="0"/>
</linearGradient>
<linearGradient id="paint10_linear_6183_3149" x1="718" y1="261.5" x2="981" y2="261.5" gradientUnits="userSpaceOnUse">
<stop stop-color="#7D71FF"/>
<stop offset="1" stop-opacity="0"/>
</linearGradient>
<linearGradient id="paint11_linear_6183_3149" x1="718" y1="361.5" x2="981" y2="361.5" gradientUnits="userSpaceOnUse">
<stop stop-color="#7D71FF"/>
<stop offset="1" stop-opacity="0"/>
</linearGradient>
<clipPath id="clip0_6183_3149">
<rect width="1043" height="558" fill="white"/>
</clipPath>
<clipPath id="clip1_6183_3149">
<rect width="47.3331" height="55.6554" fill="white" transform="translate(430 234)"/>
</clipPath>
<clipPath id="clip2_6183_3149">
<rect width="31.1473" height="36.6238" fill="white" transform="translate(340 459.435)"/>
</clipPath>
</defs>
</svg>
