<svg width="895" height="964" viewBox="0 0 895 964" fill="none" xmlns="http://www.w3.org/2000/svg">
<g clip-path="url(#clip0_6261_3132)">
<path d="M386.514 512.004L386.514 516.004L378.514 516.004L378.514 512.004L386.514 512.004ZM386.506 313.504L386.508 373.504L378.508 373.504L378.506 313.504L386.506 313.504ZM386.508 373.504L386.514 512.004L378.514 512.004L378.508 373.504L386.508 373.504Z" fill="url(#paint0_linear_6261_3132)"/>
<path d="M387.002 216.504C387.002 219.265 384.763 221.504 382.002 221.504C379.241 221.504 377.002 219.266 377.002 216.504L387.002 216.504ZM386.985 -191.996L386.996 78.0037L376.996 78.0041L376.985 -191.996L386.985 -191.996ZM386.996 78.0037L387.002 216.504L377.002 216.504L376.996 78.0041L386.996 78.0037Z" fill="url(#paint1_linear_6261_3132)"/>
<path d="M383.029 514C383.029 514.276 382.805 514.5 382.529 514.5C382.253 514.5 382.029 514.276 382.029 514L383.029 514ZM383.021 315.5L383.021 316.5L382.021 316.5L382.021 315.5L383.021 315.5ZM383.021 318.5L383.021 320.5L382.021 320.5L382.021 318.5L383.021 318.5ZM383.021 322.5L383.021 324.5L382.021 324.5L382.021 322.5L383.021 322.5ZM383.021 326.5L383.022 328.5L382.022 328.5L382.021 326.5L383.021 326.5ZM383.022 330.5L383.022 332.5L382.022 332.5L382.022 330.5L383.022 330.5ZM383.022 334.5L383.022 336.5L382.022 336.5L382.022 334.5L383.022 334.5ZM383.022 338.5L383.022 340.5L382.022 340.5L382.022 338.5L383.022 338.5ZM383.022 342.5L383.022 344.5L382.022 344.5L382.022 342.5L383.022 342.5ZM383.022 346.5L383.022 348.5L382.022 348.5L382.022 346.5L383.022 346.5ZM383.022 350.5L383.023 352.5L382.023 352.5L382.022 350.5L383.022 350.5ZM383.023 354.5L383.023 356.5L382.023 356.5L382.023 354.5L383.023 354.5ZM383.023 358.5L383.023 360.5L382.023 360.5L382.023 358.5L383.023 358.5ZM383.023 362.5L383.023 364.5L382.023 364.5L382.023 362.5L383.023 362.5ZM383.023 366.5L383.023 368.5L382.023 368.5L382.023 366.5L383.023 366.5ZM383.023 370.5L383.023 372.5L382.023 372.5L382.023 370.5L383.023 370.5ZM383.023 374.5L383.023 375.5L382.023 375.5L382.023 374.5L383.023 374.5ZM383.023 375.5L383.024 376.489L382.024 376.489L382.023 375.5L383.023 375.5ZM383.024 378.468L383.024 380.446L382.024 380.446L382.024 378.468L383.024 378.468ZM383.024 382.425L383.024 384.404L382.024 384.404L382.024 382.425L383.024 382.425ZM383.024 386.382L383.024 388.361L382.024 388.361L382.024 386.382L383.024 386.382ZM383.024 390.339L383.024 392.318L382.024 392.318L382.024 390.339L383.024 390.339ZM383.024 394.296L383.024 396.275L382.024 396.275L382.024 394.296L383.024 394.296ZM383.024 398.254L383.025 400.232L382.025 400.232L382.024 398.254L383.024 398.254ZM383.025 402.211L383.025 404.189L382.025 404.189L382.025 402.211L383.025 402.211ZM383.025 406.168L383.025 408.146L382.025 408.146L382.025 406.168L383.025 406.168ZM383.025 410.125L383.025 412.104L382.025 412.104L382.025 410.125L383.025 410.125ZM383.025 414.082L383.025 416.061L382.025 416.061L382.025 414.082L383.025 414.082ZM383.025 418.039L383.025 420.018L382.025 420.018L382.025 418.039L383.025 418.039ZM383.025 421.996L383.025 423.975L382.025 423.975L382.025 421.996L383.025 421.996ZM383.026 425.954L383.026 427.932L382.026 427.932L382.026 425.954L383.026 425.954ZM383.026 429.911L383.026 431.889L382.026 431.889L382.026 429.911L383.026 429.911ZM383.026 433.868L383.026 435.846L382.026 435.846L382.026 433.868L383.026 433.868ZM383.026 437.825L383.026 439.804L382.026 439.804L382.026 437.825L383.026 437.825ZM383.026 441.782L383.026 443.761L382.026 443.761L382.026 441.782L383.026 441.782ZM383.026 445.739L383.026 447.718L382.026 447.718L382.026 445.739L383.026 445.739ZM383.027 449.696L383.027 451.675L382.027 451.675L382.027 449.696L383.027 449.696ZM383.027 453.654L383.027 455.632L382.027 455.632L382.027 453.654L383.027 453.654ZM383.027 457.611L383.027 459.589L382.027 459.589L382.027 457.611L383.027 457.611ZM383.027 461.568L383.027 463.546L382.027 463.546L382.027 461.568L383.027 461.568ZM383.027 465.525L383.027 467.504L382.027 467.504L382.027 465.525L383.027 465.525ZM383.027 469.482L383.027 471.461L382.027 471.461L382.027 469.482L383.027 469.482ZM383.028 473.439L383.028 475.418L382.028 475.418L382.028 473.439L383.028 473.439ZM383.028 477.396L383.028 479.375L382.028 479.375L382.028 477.396L383.028 477.396ZM383.028 481.354L383.028 483.332L382.028 483.332L382.028 481.354L383.028 481.354ZM383.028 485.311L383.028 487.289L382.028 487.289L382.028 485.311L383.028 485.311ZM383.028 489.268L383.028 491.246L382.028 491.246L382.028 489.268L383.028 489.268ZM383.028 493.225L383.028 495.204L382.028 495.204L382.028 493.225L383.028 493.225ZM383.029 497.182L383.029 499.161L382.029 499.161L382.029 497.182L383.029 497.182ZM383.029 501.139L383.029 503.118L382.029 503.118L382.029 501.139L383.029 501.139ZM383.029 505.096L383.029 507.075L382.029 507.075L382.029 505.096L383.029 505.096ZM383.029 509.054L383.029 511.032L382.029 511.032L382.029 509.054L383.029 509.054ZM383.029 513.011L383.029 514L382.029 514L382.029 513.011L383.029 513.011Z" fill="#7D72FF"/>
<path d="M382.517 216C382.517 216.276 382.293 216.5 382.017 216.5C381.741 216.5 381.517 216.276 381.517 216L382.517 216ZM382.5 -197L382.5 -196L381.5 -196L381.5 -197L382.5 -197ZM382.5 -194L382.5 -192L381.5 -192L381.5 -194L382.5 -194ZM382.5 -190L382.5 -188L381.5 -188L381.5 -190L382.5 -190ZM382.5 -186L382.501 -184L381.501 -184L381.5 -186L382.5 -186ZM382.501 -182L382.501 -180L381.501 -180L381.501 -182L382.501 -182ZM382.501 -178L382.501 -176L381.501 -176L381.501 -178L382.501 -178ZM382.501 -174L382.501 -172L381.501 -172L381.501 -174L382.501 -174ZM382.501 -170L382.501 -168L381.501 -168L381.501 -170L382.501 -170ZM382.501 -166L382.501 -164L381.501 -164L381.501 -166L382.501 -166ZM382.501 -162L382.502 -160L381.502 -160L381.501 -162L382.501 -162ZM382.502 -158L382.502 -156L381.502 -156L381.502 -158L382.502 -158ZM382.502 -154L382.502 -152L381.502 -152L381.502 -154L382.502 -154ZM382.502 -150L382.502 -148L381.502 -148L381.502 -150L382.502 -150ZM382.502 -146L382.502 -144L381.502 -144L381.502 -146L382.502 -146ZM382.502 -142L382.502 -140L381.502 -140L381.502 -142L382.502 -142ZM382.502 -138L382.503 -136L381.503 -136L381.502 -138L382.502 -138ZM382.503 -134L382.503 -132L381.503 -132L381.503 -134L382.503 -134ZM382.503 -130L382.503 -128L381.503 -128L381.503 -130L382.503 -130ZM382.503 -126L382.503 -124L381.503 -124L381.503 -126L382.503 -126ZM382.503 -122L382.503 -120L381.503 -120L381.503 -122L382.503 -122ZM382.503 -118L382.503 -116L381.503 -116L381.503 -118L382.503 -118ZM382.503 -114L382.504 -112L381.504 -112L381.503 -114L382.503 -114ZM382.504 -110L382.504 -108L381.504 -108L381.504 -110L382.504 -110ZM382.504 -106L382.504 -104L381.504 -104L381.504 -106L382.504 -106ZM382.504 -102L382.504 -100L381.504 -100L381.504 -102L382.504 -102ZM382.504 -98L382.504 -96L381.504 -96L381.504 -98L382.504 -98ZM382.504 -94L382.504 -92L381.504 -92L381.504 -94L382.504 -94ZM382.504 -90L382.505 -88L381.505 -88L381.504 -90L382.504 -90ZM382.505 -86L382.505 -84L381.505 -84L381.505 -86L382.505 -86ZM382.505 -82L382.505 -80L381.505 -80L381.505 -82L382.505 -82ZM382.505 -78L382.505 -76L381.505 -76L381.505 -78L382.505 -78ZM382.505 -74L382.505 -72L381.505 -72L381.505 -74L382.505 -74ZM382.505 -70L382.505 -68L381.505 -68L381.505 -70L382.505 -70ZM382.505 -66L382.506 -64L381.506 -64L381.505 -66L382.505 -66ZM382.506 -62L382.506 -60L381.506 -60L381.506 -62L382.506 -62ZM382.506 -58L382.506 -56L381.506 -56L381.506 -58L382.506 -58ZM382.506 -54L382.506 -52L381.506 -52L381.506 -54L382.506 -54ZM382.506 -50L382.506 -48L381.506 -48L381.506 -50L382.506 -50ZM382.506 -46L382.506 -44L381.506 -44L381.506 -46L382.506 -46ZM382.506 -42L382.507 -40L381.507 -40L381.506 -42L382.506 -42ZM382.507 -38L382.507 -36L381.507 -36L381.507 -38L382.507 -38ZM382.507 -34L382.507 -32L381.507 -32L381.507 -34L382.507 -34ZM382.507 -30L382.507 -28L381.507 -28L381.507 -30L382.507 -30ZM382.507 -26L382.507 -24L381.507 -24L381.507 -26L382.507 -26ZM382.507 -22L382.507 -20L381.507 -20L381.507 -22L382.507 -22ZM382.507 -18L382.508 -16L381.508 -16L381.507 -18L382.507 -18ZM382.508 -14L382.508 -12L381.508 -12L381.508 -14L382.508 -14ZM382.508 -10L382.508 -8.00002L381.508 -7.99998L381.508 -9.99998L382.508 -10ZM382.508 -6.00002L382.508 -4.00002L381.508 -3.99998L381.508 -5.99998L382.508 -6.00002ZM382.508 -2.00002L382.508 -2.07195e-05L381.508 2.07195e-05L381.508 -1.99998L382.508 -2.00002ZM382.508 1.99998L382.508 3.99998L381.508 4.00002L381.508 2.00002L382.508 1.99998ZM382.508 5.99998L382.508 7.99998L381.508 8.00002L381.508 6.00002L382.508 5.99998ZM382.509 9.99998L382.509 12L381.509 12L381.509 10L382.509 9.99998ZM382.509 14L382.509 16L381.509 16L381.509 14L382.509 14ZM382.509 18L382.509 19L381.509 19L381.509 18L382.509 18ZM382.509 19L382.509 20.0051L381.509 20.0051L381.509 19L382.509 19ZM382.509 22.0153L382.509 24.0255L381.509 24.0255L381.509 22.0153L382.509 22.0153ZM382.509 26.0357L382.509 28.0459L381.509 28.0459L381.509 26.0357L382.509 26.0357ZM382.509 30.0561L382.509 32.0663L381.509 32.0664L381.509 30.0561L382.509 30.0561ZM382.51 34.0765L382.51 36.0867L381.51 36.0868L381.51 34.0766L382.51 34.0765ZM382.51 38.0969L382.51 40.1071L381.51 40.1072L381.51 38.097L382.51 38.0969ZM382.51 42.1173L382.51 44.1275L381.51 44.1276L381.51 42.1174L382.51 42.1173ZM382.51 46.1377L382.51 48.1479L381.51 48.148L381.51 46.1378L382.51 46.1377ZM382.51 50.1582L382.51 52.1683L381.51 52.1684L381.51 50.1582L382.51 50.1582ZM382.51 54.1786L382.51 56.1888L381.51 56.1888L381.51 54.1786L382.51 54.1786ZM382.511 58.199L382.511 60.2092L381.511 60.2092L381.511 58.199L382.511 58.199ZM382.511 62.2194L382.511 64.2296L381.511 64.2296L381.511 62.2194L382.511 62.2194ZM382.511 66.2398L382.511 68.25L381.511 68.25L381.511 66.2398L382.511 66.2398ZM382.511 70.2602L382.511 72.2704L381.511 72.2704L381.511 70.2602L382.511 70.2602ZM382.511 74.2806L382.511 76.2908L381.511 76.2909L381.511 74.2806L382.511 74.2806ZM382.511 78.301L382.511 80.3112L381.511 80.3112L381.511 78.301L382.511 78.301ZM382.512 82.3214L382.512 84.3316L381.512 84.3317L381.512 82.3215L382.512 82.3214ZM382.512 86.3418L382.512 88.352L381.512 88.3521L381.512 86.3418L382.512 86.3418ZM382.512 90.3622L382.512 92.3724L381.512 92.3725L381.512 90.3623L382.512 90.3622ZM382.512 94.3826L382.512 96.3928L381.512 96.3929L381.512 94.3827L382.512 94.3826ZM382.512 98.403L382.512 100.413L381.512 100.413L381.512 98.4031L382.512 98.403ZM382.512 102.423L382.512 104.434L381.512 104.434L381.512 102.423L382.512 102.423ZM382.513 106.444L382.513 108.454L381.513 108.454L381.513 106.444L382.513 106.444ZM382.513 110.464L382.513 112.474L381.513 112.474L381.513 110.464L382.513 110.464ZM382.513 114.485L382.513 116.495L381.513 116.495L381.513 114.485L382.513 114.485ZM382.513 118.505L382.513 120.515L381.513 120.515L381.513 118.505L382.513 118.505ZM382.513 122.525L382.513 124.536L381.513 124.536L381.513 122.525L382.513 122.525ZM382.513 126.546L382.513 128.556L381.513 128.556L381.513 126.546L382.513 126.546ZM382.514 130.566L382.514 132.576L381.514 132.576L381.514 130.566L382.514 130.566ZM382.514 134.587L382.514 136.597L381.514 136.597L381.514 134.587L382.514 134.587ZM382.514 138.607L382.514 140.617L381.514 140.617L381.514 138.607L382.514 138.607ZM382.514 142.627L382.514 144.638L381.514 144.638L381.514 142.627L382.514 142.627ZM382.514 146.648L382.514 148.658L381.514 148.658L381.514 146.648L382.514 146.648ZM382.514 150.668L382.514 152.678L381.514 152.678L381.514 150.668L382.514 150.668ZM382.515 154.689L382.515 156.699L381.515 156.699L381.515 154.689L382.515 154.689ZM382.515 158.709L382.515 160.719L381.515 160.719L381.515 158.709L382.515 158.709ZM382.515 162.73L382.515 164.74L381.515 164.74L381.515 162.73L382.515 162.73ZM382.515 166.75L382.515 168.76L381.515 168.76L381.515 166.75L382.515 166.75ZM382.515 170.77L382.515 172.781L381.515 172.781L381.515 170.77L382.515 170.77ZM382.515 174.791L382.515 176.801L381.515 176.801L381.515 174.791L382.515 174.791ZM382.516 178.811L382.516 180.821L381.516 180.821L381.516 178.811L382.516 178.811ZM382.516 182.832L382.516 184.842L381.516 184.842L381.516 182.832L382.516 182.832ZM382.516 186.852L382.516 188.862L381.516 188.862L381.516 186.852L382.516 186.852ZM382.516 190.872L382.516 192.883L381.516 192.883L381.516 190.872L382.516 190.872ZM382.516 194.893L382.516 196.903L381.516 196.903L381.516 194.893L382.516 194.893ZM382.516 198.913L382.516 200.923L381.516 200.923L381.516 198.913L382.516 198.913ZM382.517 202.934L382.517 204.944L381.517 204.944L381.517 202.934L382.517 202.934ZM382.517 206.954L382.517 208.964L381.517 208.964L381.517 206.954L382.517 206.954ZM382.517 210.974L382.517 212.985L381.517 212.985L381.517 210.975L382.517 210.974ZM382.517 214.995L382.517 216L381.517 216L381.517 214.995L382.517 214.995Z" fill="url(#paint2_linear_6261_3132)"/>
<circle cx="382.004" cy="265.004" r="100" transform="rotate(89.9976 382.004 265.004)" fill="url(#paint3_radial_6261_3132)" fill-opacity="0.3"/>
<circle cx="382.004" cy="265.004" r="100.25" transform="rotate(89.9976 382.004 265.004)" stroke="white" stroke-opacity="0.5" stroke-width="0.5"/>
<circle cx="382.504" cy="265.504" r="75" transform="rotate(89.9976 382.504 265.504)" fill="url(#paint4_radial_6261_3132)" fill-opacity="0.5"/>
<circle cx="382.504" cy="265.504" r="75.25" transform="rotate(89.9976 382.504 265.504)" stroke="white" stroke-opacity="0.5" stroke-width="0.5"/>
<circle cx="382.504" cy="265.504" r="49.5" transform="rotate(89.9976 382.504 265.504)" fill="url(#paint5_radial_6261_3132)"/>
<circle cx="382.504" cy="265.504" r="50" transform="rotate(89.9976 382.504 265.504)" stroke="white" stroke-opacity="0.5"/>
<g clip-path="url(#clip1_6261_3132)">
<path d="M405.843 241.583V244.565C405.843 246.616 405.308 248.56 404.319 250.264L395.981 264.697L387.268 249.651C385.183 246.057 379.17 246.057 377.085 249.651L368.372 264.644L360.087 250.317C359.071 248.56 358.51 246.562 358.51 244.565V241.583C358.51 238.973 360.648 236.843 363.267 236.843H401.085C403.705 236.843 405.843 238.973 405.843 241.583Z" fill="#7B78FF"/>
<path d="M395.981 264.696L387.268 279.688C386.225 281.499 384.274 282.617 382.163 282.617C380.052 282.617 378.127 281.472 377.058 279.688L368.345 264.643L377.058 249.65C379.143 246.055 385.156 246.055 387.241 249.65L395.981 264.696Z" fill="#12429F"/>
<path d="M405.843 284.749V287.731C405.843 290.341 403.705 292.471 401.085 292.471H363.267C360.648 292.498 358.51 290.368 358.51 287.758V284.722C358.51 282.725 359.044 280.781 360.033 279.077L368.372 264.644L377.085 279.689C378.127 281.5 380.078 282.618 382.19 282.618C384.301 282.618 386.225 281.473 387.294 279.689L396.007 264.697L404.293 279.023C405.308 280.781 405.843 282.778 405.843 284.749Z" fill="#A0D2EB"/>
</g>
<rect x="253" y="540" width="263" height="39" rx="19.5" fill="#7D71FF"/>
<path d="M267.91 560.451V555.42H269.665V560.581C269.665 561.829 270.445 562.531 271.55 562.531C272.681 562.531 273.435 561.829 273.435 560.581V555.42H275.19V560.451C275.19 562.726 273.63 564.156 271.55 564.156C269.444 564.156 267.91 562.726 267.91 560.451ZM282.825 560.009V564H281.083V560.243C281.083 559.502 280.602 558.995 279.887 558.995C279.172 558.995 278.665 559.502 278.665 560.243V564H276.91V557.565H278.522V558.15C278.977 557.695 279.64 557.422 280.407 557.422C281.902 557.422 282.825 558.449 282.825 560.009ZM284.515 564V557.565H286.27V564H284.515ZM284.268 555.225C284.268 554.601 284.762 554.133 285.386 554.133C286.01 554.133 286.517 554.601 286.517 555.225C286.517 555.836 286.01 556.304 285.386 556.304C284.762 556.304 284.268 555.836 284.268 555.225ZM290.06 556.668V557.565H291.477V559.047H290.06V564H288.305V559.047H287.395V557.565H288.305V556.512C288.305 554.9 289.241 554.094 290.788 554.094C291.126 554.094 291.451 554.146 291.75 554.237V555.706C291.555 555.68 291.386 555.667 291.23 555.667C290.437 555.667 290.06 555.94 290.06 556.668ZM292.647 564V557.565H294.402V564H292.647ZM292.4 555.225C292.4 554.601 292.894 554.133 293.518 554.133C294.142 554.133 294.649 554.601 294.649 555.225C294.649 555.836 294.142 556.304 293.518 556.304C292.894 556.304 292.4 555.836 292.4 555.225ZM302.058 561.374H297.547C297.755 562.193 298.418 562.648 299.354 562.648C299.991 562.648 300.589 562.427 301.148 561.998L301.876 563.194C301.109 563.831 300.251 564.156 299.302 564.156C297.313 564.195 295.74 562.648 295.779 560.789C295.74 558.93 297.287 557.383 299.146 557.422C300.927 557.422 302.175 558.735 302.175 560.412C302.175 560.724 302.136 561.049 302.058 561.374ZM297.547 560.139H300.472C300.459 559.346 299.848 558.839 299.081 558.839C298.34 558.839 297.742 559.346 297.547 560.139ZM308.225 554.25H309.98V564H308.368V563.207C307.939 563.818 307.185 564.156 306.301 564.156C304.507 564.156 303.181 562.726 303.181 560.789C303.181 558.852 304.507 557.422 306.301 557.422C307.12 557.422 307.757 557.682 308.225 558.189V554.25ZM308.251 560.789C308.251 559.645 307.51 559.008 306.626 559.008C305.69 559.008 304.962 559.723 304.962 560.776C304.962 561.855 305.677 562.557 306.626 562.557C307.51 562.557 308.251 561.946 308.251 560.789ZM315.481 564V555.42H317.236V562.414H320.993V564H315.481ZM322.182 564V557.565H323.937V564H322.182ZM321.935 555.225C321.935 554.601 322.429 554.133 323.053 554.133C323.677 554.133 324.184 554.601 324.184 555.225C324.184 555.836 323.677 556.304 323.053 556.304C322.429 556.304 321.935 555.836 321.935 555.225ZM330.496 557.565H332.108V566.34H330.353V563.376C329.885 563.883 329.209 564.156 328.429 564.156C326.635 564.156 325.309 562.7 325.309 560.776C325.309 558.852 326.635 557.422 328.429 557.422C329.313 557.422 330.067 557.76 330.496 558.371V557.565ZM330.379 560.776C330.379 559.619 329.638 559.008 328.754 559.008C327.805 559.008 327.09 559.71 327.09 560.789C327.09 561.842 327.818 562.557 328.754 562.557C329.638 562.557 330.379 561.92 330.379 560.776ZM333.784 561.166V557.565H335.539V561.309C335.539 562.05 336.046 562.544 336.761 562.544C337.437 562.544 337.957 562.05 337.957 561.309V557.565H339.712V561.166C339.712 562.96 338.438 564.156 336.761 564.156C335.045 564.156 333.784 562.96 333.784 561.166ZM341.39 564V557.565H343.145V564H341.39ZM341.143 555.225C341.143 554.601 341.637 554.133 342.261 554.133C342.885 554.133 343.392 554.601 343.392 555.225C343.392 555.836 342.885 556.304 342.261 556.304C341.637 556.304 341.143 555.836 341.143 555.225ZM349.561 554.25H351.316V564H349.704V563.207C349.275 563.818 348.521 564.156 347.637 564.156C345.843 564.156 344.517 562.726 344.517 560.789C344.517 558.852 345.843 557.422 347.637 557.422C348.456 557.422 349.093 557.682 349.561 558.189V554.25ZM349.587 560.789C349.587 559.645 348.846 559.008 347.962 559.008C347.026 559.008 346.298 559.723 346.298 560.776C346.298 561.855 347.013 562.557 347.962 562.557C348.846 562.557 349.587 561.946 349.587 560.789ZM353.057 564V557.565H354.812V564H353.057ZM352.81 555.225C352.81 554.601 353.304 554.133 353.928 554.133C354.552 554.133 355.059 554.601 355.059 555.225C355.059 555.836 354.552 556.304 353.928 556.304C353.304 556.304 352.81 555.836 352.81 555.225ZM360.682 562.531V564C360.266 564.104 359.863 564.156 359.473 564.156C357.848 564.156 356.899 563.35 356.899 561.738V559.047H355.885V557.565H356.899V555.94H358.654V557.565H360.474V559.047H358.654V561.582C358.654 562.31 359.018 562.583 359.85 562.583C359.954 562.583 360.227 562.57 360.682 562.531ZM366.35 557.565H368.196L365.115 564.559C364.53 565.898 363.75 566.496 362.554 566.496C362.19 566.496 361.813 566.444 361.423 566.34V564.871C361.826 564.91 362.073 564.923 362.177 564.923C362.801 564.923 363.217 564.728 363.516 564.052L363.711 563.61L361.241 557.565H363.1L364.673 561.79L366.35 557.565ZM377.869 564L377.388 562.882H373.878L373.397 564H371.512L375.347 555.264H375.932L379.754 564H377.869ZM376.777 561.439L375.633 558.54L374.489 561.439H376.777ZM380.216 560.776C380.216 558.891 381.75 557.422 383.661 557.422C384.922 557.422 385.897 558.02 386.456 559.008L385.234 559.957C384.831 559.372 384.363 559.021 383.687 559.021C382.699 559.021 381.997 559.775 381.997 560.776C381.997 561.803 382.699 562.544 383.687 562.544C384.35 562.544 384.818 562.206 385.234 561.621L386.456 562.557C385.897 563.545 384.909 564.156 383.661 564.156C381.776 564.195 380.19 562.635 380.216 560.776ZM391.705 557.565V559.112H391.237C390.184 559.112 389.508 559.684 389.508 560.789V564H387.753V557.565H389.365V558.332C389.794 557.799 390.418 557.487 391.133 557.487C391.354 557.487 391.536 557.513 391.705 557.565ZM392.302 560.776C392.263 558.943 393.862 557.383 395.747 557.422C397.632 557.396 399.244 558.943 399.205 560.776C399.244 562.609 397.619 564.182 395.734 564.143C393.849 564.182 392.263 562.609 392.302 560.776ZM397.411 560.789C397.411 559.788 396.696 559.021 395.747 559.021C394.772 559.021 394.083 559.762 394.083 560.789C394.083 561.79 394.772 562.531 395.747 562.531C396.696 562.531 397.411 561.79 397.411 560.789ZM399.99 562.908L400.874 561.842C401.433 562.427 402.044 562.713 402.681 562.713C403.149 562.713 403.5 562.531 403.5 562.18C403.5 561.907 403.318 561.803 402.837 561.595L402.148 561.309C400.965 560.828 400.393 560.295 400.393 559.346C400.393 558.137 401.355 557.422 402.759 557.422C403.721 557.422 404.488 557.747 405.073 558.384L404.189 559.463C403.76 559.06 403.279 558.852 402.746 558.852C402.317 558.852 402.057 559.008 402.057 559.307C402.057 559.554 402.226 559.671 402.733 559.879L403.357 560.139C404.605 560.646 405.164 561.153 405.164 562.102C405.164 562.739 404.93 563.246 404.449 563.61C403.981 563.974 403.383 564.156 402.655 564.156C401.524 564.156 400.575 563.688 399.99 562.908ZM405.906 562.908L406.79 561.842C407.349 562.427 407.96 562.713 408.597 562.713C409.065 562.713 409.416 562.531 409.416 562.18C409.416 561.907 409.234 561.803 408.753 561.595L408.064 561.309C406.881 560.828 406.309 560.295 406.309 559.346C406.309 558.137 407.271 557.422 408.675 557.422C409.637 557.422 410.404 557.747 410.989 558.384L410.105 559.463C409.676 559.06 409.195 558.852 408.662 558.852C408.233 558.852 407.973 559.008 407.973 559.307C407.973 559.554 408.142 559.671 408.649 559.879L409.273 560.139C410.521 560.646 411.08 561.153 411.08 562.102C411.08 562.739 410.846 563.246 410.365 563.61C409.897 563.974 409.299 564.156 408.571 564.156C407.44 564.156 406.491 563.688 405.906 562.908ZM423.994 555.264H424.566V564H422.811V559.424L420.653 562.128H420.081L417.923 559.424V564H416.168V555.264H416.74L420.367 559.905L423.994 555.264ZM431.754 560.178V564H430.142V563.376C429.674 563.857 428.998 564.156 428.179 564.156C426.814 564.156 425.956 563.363 425.956 562.232C425.956 561.075 426.892 560.36 428.387 560.36H429.999V560.074C429.999 559.359 429.583 558.943 428.803 558.943C428.14 558.943 427.672 559.216 427.1 559.827L426.19 558.748C426.931 557.864 427.867 557.422 428.998 557.422C430.675 557.422 431.754 558.397 431.754 560.178ZM429.999 561.595V561.517H428.621C428.049 561.517 427.724 561.738 427.724 562.167C427.724 562.596 428.088 562.869 428.647 562.869C429.414 562.869 429.999 562.336 429.999 561.595ZM437.577 562.531V564C437.161 564.104 436.758 564.156 436.368 564.156C434.743 564.156 433.794 563.35 433.794 561.738V559.047H432.78V557.565H433.794V555.94H435.549V557.565H437.369V559.047H435.549V561.582C435.549 562.31 435.913 562.583 436.745 562.583C436.849 562.583 437.122 562.57 437.577 562.531ZM438.786 561.166V557.565H440.541V561.309C440.541 562.05 441.048 562.544 441.763 562.544C442.439 562.544 442.959 562.05 442.959 561.309V557.565H444.714V561.166C444.714 562.96 443.44 564.156 441.763 564.156C440.047 564.156 438.786 562.96 438.786 561.166ZM450.344 557.565V559.112H449.876C448.823 559.112 448.147 559.684 448.147 560.789V564H446.392V557.565H448.004V558.332C448.433 557.799 449.057 557.487 449.772 557.487C449.993 557.487 450.175 557.513 450.344 557.565ZM451.433 564V557.565H453.188V564H451.433ZM451.186 555.225C451.186 554.601 451.68 554.133 452.304 554.133C452.928 554.133 453.435 554.601 453.435 555.225C453.435 555.836 452.928 556.304 452.304 556.304C451.68 556.304 451.186 555.836 451.186 555.225ZM459.058 562.531V564C458.642 564.104 458.239 564.156 457.849 564.156C456.224 564.156 455.275 563.35 455.275 561.738V559.047H454.261V557.565H455.275V555.94H457.03V557.565H458.85V559.047H457.03V561.582C457.03 562.31 457.394 562.583 458.226 562.583C458.33 562.583 458.603 562.57 459.058 562.531ZM460.332 564V557.565H462.087V564H460.332ZM460.085 555.225C460.085 554.601 460.579 554.133 461.203 554.133C461.827 554.133 462.334 554.601 462.334 555.225C462.334 555.836 461.827 556.304 461.203 556.304C460.579 556.304 460.085 555.836 460.085 555.225ZM469.738 561.374H465.227C465.435 562.193 466.098 562.648 467.034 562.648C467.671 562.648 468.269 562.427 468.828 561.998L469.556 563.194C468.789 563.831 467.931 564.156 466.982 564.156C464.993 564.195 463.42 562.648 463.459 560.789C463.42 558.93 464.967 557.383 466.826 557.422C468.607 557.422 469.855 558.735 469.855 560.412C469.855 560.724 469.816 561.049 469.738 561.374ZM465.227 560.139H468.152C468.139 559.346 467.528 558.839 466.761 558.839C466.02 558.839 465.422 559.346 465.227 560.139ZM470.64 562.908L471.524 561.842C472.083 562.427 472.694 562.713 473.331 562.713C473.799 562.713 474.15 562.531 474.15 562.18C474.15 561.907 473.968 561.803 473.487 561.595L472.798 561.309C471.615 560.828 471.043 560.295 471.043 559.346C471.043 558.137 472.005 557.422 473.409 557.422C474.371 557.422 475.138 557.747 475.723 558.384L474.839 559.463C474.41 559.06 473.929 558.852 473.396 558.852C472.967 558.852 472.707 559.008 472.707 559.307C472.707 559.554 472.876 559.671 473.383 559.879L474.007 560.139C475.255 560.646 475.814 561.153 475.814 562.102C475.814 562.739 475.58 563.246 475.099 563.61C474.631 563.974 474.033 564.156 473.305 564.156C472.174 564.156 471.225 563.688 470.64 562.908Z" fill="white"/>
<rect x="253" y="609" width="263" height="39" rx="19.5" fill="#7D71FF"/>
<path d="M269.925 633V626.006H267.182V624.42H274.436V626.006H271.68V633H269.925ZM275.475 633V626.565H277.23V633H275.475ZM275.228 624.225C275.228 623.601 275.722 623.133 276.346 623.133C276.97 623.133 277.477 623.601 277.477 624.225C277.477 624.836 276.97 625.304 276.346 625.304C275.722 625.304 275.228 624.836 275.228 624.225ZM288.886 629.009V633H287.131V629.256C287.131 628.489 286.676 628.008 285.987 628.008C285.298 628.008 284.804 628.502 284.804 629.217V633H283.049V629.256C283.049 628.489 282.594 628.008 281.905 628.008C281.19 628.008 280.722 628.489 280.722 629.256V633H278.967V626.565H280.579V627.137C281.008 626.682 281.658 626.422 282.399 626.422C283.244 626.422 283.881 626.734 284.31 627.345C284.817 626.773 285.571 626.422 286.455 626.422C287.963 626.422 288.886 627.449 288.886 629.009ZM296.473 630.374H291.962C292.17 631.193 292.833 631.648 293.769 631.648C294.406 631.648 295.004 631.427 295.563 630.998L296.291 632.194C295.524 632.831 294.666 633.156 293.717 633.156C291.728 633.195 290.155 631.648 290.194 629.789C290.155 627.93 291.702 626.383 293.561 626.422C295.342 626.422 296.59 627.735 296.59 629.412C296.59 629.724 296.551 630.049 296.473 630.374ZM291.962 629.139H294.887C294.874 628.346 294.263 627.839 293.496 627.839C292.755 627.839 292.157 628.346 291.962 629.139ZM308.362 630.478C308.362 631.96 307.192 633 305.541 633H301.719V624.42H304.761C306.347 624.42 307.478 625.408 307.478 626.812C307.478 627.436 307.27 627.956 306.841 628.359C307.79 628.71 308.362 629.438 308.362 630.478ZM304.618 625.928H303.409V627.891H304.618C305.333 627.891 305.736 627.514 305.736 626.903C305.736 626.292 305.333 625.928 304.618 625.928ZM306.633 630.413C306.633 629.75 306.178 629.334 305.411 629.334H303.409V631.492H305.411C306.178 631.492 306.633 631.089 306.633 630.413ZM309.313 629.776C309.274 627.943 310.873 626.383 312.758 626.422C314.643 626.396 316.255 627.943 316.216 629.776C316.255 631.609 314.63 633.182 312.745 633.143C310.86 633.182 309.274 631.609 309.313 629.776ZM314.422 629.789C314.422 628.788 313.707 628.021 312.758 628.021C311.783 628.021 311.094 628.762 311.094 629.789C311.094 630.79 311.783 631.531 312.758 631.531C313.707 631.531 314.422 630.79 314.422 629.789ZM317.521 630.166V626.565H319.276V630.309C319.276 631.05 319.783 631.544 320.498 631.544C321.174 631.544 321.694 631.05 321.694 630.309V626.565H323.449V630.166C323.449 631.96 322.175 633.156 320.498 633.156C318.782 633.156 317.521 631.96 317.521 630.166ZM331.042 629.009V633H329.3V629.243C329.3 628.502 328.819 627.995 328.104 627.995C327.389 627.995 326.882 628.502 326.882 629.243V633H325.127V626.565H326.739V627.15C327.194 626.695 327.857 626.422 328.624 626.422C330.119 626.422 331.042 627.449 331.042 629.009ZM337.411 623.25H339.166V633H337.554V632.207C337.125 632.818 336.371 633.156 335.487 633.156C333.693 633.156 332.367 631.726 332.367 629.789C332.367 627.852 333.693 626.422 335.487 626.422C336.306 626.422 336.943 626.682 337.411 627.189V623.25ZM337.437 629.789C337.437 628.645 336.696 628.008 335.812 628.008C334.876 628.008 334.148 628.723 334.148 629.776C334.148 630.855 334.863 631.557 335.812 631.557C336.696 631.557 337.437 630.946 337.437 629.789ZM345.957 633V626.006H343.214V624.42H350.468V626.006H347.712V633H345.957ZM350.204 629.776C350.165 627.943 351.764 626.383 353.649 626.422C355.534 626.396 357.146 627.943 357.107 629.776C357.146 631.609 355.521 633.182 353.636 633.143C351.751 633.182 350.165 631.609 350.204 629.776ZM355.313 629.789C355.313 628.788 354.598 628.021 353.649 628.021C352.674 628.021 351.985 628.762 351.985 629.789C351.985 630.79 352.674 631.531 353.649 631.531C354.598 631.531 355.313 630.79 355.313 629.789ZM364.821 633H362.819L360.232 629.438V633H358.477V623.25H360.232V629.308L362.546 626.565H364.626L362.208 629.412L364.821 633ZM371.413 630.374H366.902C367.11 631.193 367.773 631.648 368.709 631.648C369.346 631.648 369.944 631.427 370.503 630.998L371.231 632.194C370.464 632.831 369.606 633.156 368.657 633.156C366.668 633.195 365.095 631.648 365.134 629.789C365.095 627.93 366.642 626.383 368.501 626.422C370.282 626.422 371.53 627.735 371.53 629.412C371.53 629.724 371.491 630.049 371.413 630.374ZM366.902 629.139H369.827C369.814 628.346 369.203 627.839 368.436 627.839C367.695 627.839 367.097 628.346 366.902 629.139ZM378.814 629.009V633H377.072V629.243C377.072 628.502 376.591 627.995 375.876 627.995C375.161 627.995 374.654 628.502 374.654 629.243V633H372.899V626.565H374.511V627.15C374.966 626.695 375.629 626.422 376.396 626.422C377.891 626.422 378.814 627.449 378.814 629.009ZM384.16 629.061C384.16 626.006 385.33 624.134 386.994 623.393L387.683 624.446C386.487 625.239 385.694 626.604 385.694 629.061C385.694 631.505 386.487 632.87 387.683 633.663L386.994 634.716C385.33 633.975 384.16 632.09 384.16 629.061ZM390.949 633V626.006H388.206V624.42H395.46V626.006H392.704V633H390.949ZM403.26 630.478C403.26 631.96 402.09 633 400.439 633H396.617V624.42H399.659C401.245 624.42 402.376 625.408 402.376 626.812C402.376 627.436 402.168 627.956 401.739 628.359C402.688 628.71 403.26 629.438 403.26 630.478ZM399.516 625.928H398.307V627.891H399.516C400.231 627.891 400.634 627.514 400.634 626.903C400.634 626.292 400.231 625.928 399.516 625.928ZM401.531 630.413C401.531 629.75 401.076 629.334 400.309 629.334H398.307V631.492H400.309C401.076 631.492 401.531 631.089 401.531 630.413ZM406.298 633V626.006H403.555V624.42H410.809V626.006H408.053V633H406.298ZM412.018 634.716L411.316 633.663C412.512 632.87 413.318 631.505 413.318 629.061C413.318 626.604 412.525 625.239 411.316 624.446L412.018 623.393C412.837 623.77 413.513 624.42 414.046 625.369C414.579 626.305 414.839 627.54 414.839 629.061C414.839 630.582 414.579 631.804 414.046 632.753C413.513 633.689 412.837 634.339 412.018 634.716ZM420.357 633V624.42H423.581C425.375 624.42 426.675 625.538 426.675 627.189C426.675 628.827 425.375 629.971 423.581 629.971H422.112V633H420.357ZM422.112 628.437H423.581C424.4 628.437 424.881 627.93 424.881 627.189C424.881 626.461 424.374 625.967 423.581 625.967H422.112V628.437ZM431.911 626.565V628.112H431.443C430.39 628.112 429.714 628.684 429.714 629.789V633H427.959V626.565H429.571V627.332C430 626.799 430.624 626.487 431.339 626.487C431.56 626.487 431.742 626.513 431.911 626.565ZM432.508 629.776C432.469 627.943 434.068 626.383 435.953 626.422C437.838 626.396 439.45 627.943 439.411 629.776C439.45 631.609 437.825 633.182 435.94 633.143C434.055 633.182 432.469 631.609 432.508 629.776ZM437.617 629.789C437.617 628.788 436.902 628.021 435.953 628.021C434.978 628.021 434.289 628.762 434.289 629.789C434.289 630.79 434.978 631.531 435.953 631.531C436.902 631.531 437.617 630.79 437.617 629.789ZM444.915 631.531V633C444.499 633.104 444.096 633.156 443.706 633.156C442.081 633.156 441.132 632.35 441.132 630.738V628.047H440.118V626.565H441.132V624.94H442.887V626.565H444.707V628.047H442.887V630.582C442.887 631.31 443.251 631.583 444.083 631.583C444.187 631.583 444.46 631.57 444.915 631.531ZM445.698 629.776C445.659 627.943 447.258 626.383 449.143 626.422C451.028 626.396 452.64 627.943 452.601 629.776C452.64 631.609 451.015 633.182 449.13 633.143C447.245 633.182 445.659 631.609 445.698 629.776ZM450.807 629.789C450.807 628.788 450.092 628.021 449.143 628.021C448.168 628.021 447.479 628.762 447.479 629.789C447.479 630.79 448.168 631.531 449.143 631.531C450.092 631.531 450.807 630.79 450.807 629.789ZM453.608 629.776C453.608 627.891 455.142 626.422 457.053 626.422C458.314 626.422 459.289 627.02 459.848 628.008L458.626 628.957C458.223 628.372 457.755 628.021 457.079 628.021C456.091 628.021 455.389 628.775 455.389 629.776C455.389 630.803 456.091 631.544 457.079 631.544C457.742 631.544 458.21 631.206 458.626 630.621L459.848 631.557C459.289 632.545 458.301 633.156 457.053 633.156C455.168 633.195 453.582 631.635 453.608 629.776ZM460.653 629.776C460.614 627.943 462.213 626.383 464.098 626.422C465.983 626.396 467.595 627.943 467.556 629.776C467.595 631.609 465.97 633.182 464.085 633.143C462.2 633.182 460.614 631.609 460.653 629.776ZM465.762 629.789C465.762 628.788 465.047 628.021 464.098 628.021C463.123 628.021 462.434 628.762 462.434 629.789C462.434 630.79 463.123 631.531 464.098 631.531C465.047 631.531 465.762 630.79 465.762 629.789ZM468.927 633V623.25H470.682V633H468.927Z" fill="white"/>
<rect x="253" y="681" width="263" height="39" rx="19.5" fill="#7D71FF"/>
<path d="M276.526 705L276.045 703.882H272.535L272.054 705H270.169L274.004 696.264H274.589L278.411 705H276.526ZM275.434 702.439L274.29 699.54L273.146 702.439H275.434ZM287.409 696.264H287.981V705H286.226V700.424L284.068 703.128H283.496L281.338 700.424V705H279.583V696.264H280.155L283.782 700.905L287.409 696.264ZM297.781 696.264H298.353V705H296.598V700.424L294.44 703.128H293.868L291.71 700.424V705H289.955V696.264H290.527L294.154 700.905L297.781 696.264ZM310.613 702.478C310.613 703.96 309.443 705 307.792 705H303.97V696.42H307.012C308.598 696.42 309.729 697.408 309.729 698.812C309.729 699.436 309.521 699.956 309.092 700.359C310.041 700.71 310.613 701.438 310.613 702.478ZM306.869 697.928H305.66V699.891H306.869C307.584 699.891 307.987 699.514 307.987 698.903C307.987 698.292 307.584 697.928 306.869 697.928ZM308.884 702.413C308.884 701.75 308.429 701.334 307.662 701.334H305.66V703.492H307.662C308.429 703.492 308.884 703.089 308.884 702.413ZM311.564 701.776C311.525 699.943 313.124 698.383 315.009 698.422C316.894 698.396 318.506 699.943 318.467 701.776C318.506 703.609 316.881 705.182 314.996 705.143C313.111 705.182 311.525 703.609 311.564 701.776ZM316.673 701.789C316.673 700.788 315.958 700.021 315.009 700.021C314.034 700.021 313.345 700.762 313.345 701.789C313.345 702.79 314.034 703.531 315.009 703.531C315.958 703.531 316.673 702.79 316.673 701.789ZM319.473 701.776C319.434 699.943 321.033 698.383 322.918 698.422C324.803 698.396 326.415 699.943 326.376 701.776C326.415 703.609 324.79 705.182 322.905 705.143C321.02 705.182 319.434 703.609 319.473 701.776ZM324.582 701.789C324.582 700.788 323.867 700.021 322.918 700.021C321.943 700.021 321.254 700.762 321.254 701.789C321.254 702.79 321.943 703.531 322.918 703.531C323.867 703.531 324.582 702.79 324.582 701.789ZM334.09 705H332.088L329.501 701.438V705H327.746V695.25H329.501V701.308L331.815 698.565H333.895L331.477 701.412L334.09 705ZM338.677 701.061C338.677 698.006 339.847 696.134 341.511 695.393L342.2 696.446C341.004 697.239 340.211 698.604 340.211 701.061C340.211 703.505 341.004 704.87 342.2 705.663L341.511 706.716C339.847 705.975 338.677 704.09 338.677 701.061ZM349.067 705L348.586 703.882H345.076L344.595 705H342.71L346.545 696.264H347.13L350.952 705H349.067ZM347.975 702.439L346.831 699.54L345.687 702.439H347.975ZM359.95 696.264H360.522V705H358.767V700.424L356.609 703.128H356.037L353.879 700.424V705H352.124V696.264H352.696L356.323 700.905L359.95 696.264ZM370.322 696.264H370.894V705H369.139V700.424L366.981 703.128H366.409L364.251 700.424V705H362.496V696.264H363.068L366.695 700.905L370.322 696.264ZM379.511 702.478C379.511 703.96 378.341 705 376.69 705H372.868V696.42H375.91C377.496 696.42 378.627 697.408 378.627 698.812C378.627 699.436 378.419 699.956 377.99 700.359C378.939 700.71 379.511 701.438 379.511 702.478ZM375.767 697.928H374.558V699.891H375.767C376.482 699.891 376.885 699.514 376.885 698.903C376.885 698.292 376.482 697.928 375.767 697.928ZM377.782 702.413C377.782 701.75 377.327 701.334 376.56 701.334H374.558V703.492H376.56C377.327 703.492 377.782 703.089 377.782 702.413ZM380.74 706.716L380.038 705.663C381.234 704.87 382.04 703.505 382.04 701.061C382.04 698.604 381.247 697.239 380.038 696.446L380.74 695.393C381.559 695.77 382.235 696.42 382.768 697.369C383.301 698.305 383.561 699.54 383.561 701.061C383.561 702.582 383.301 703.804 382.768 704.753C382.235 705.689 381.559 706.339 380.74 706.716ZM389.08 705V696.42H390.835V703.414H394.592V705H389.08ZM395.78 705V698.565H397.535V705H395.78ZM395.533 696.225C395.533 695.601 396.027 695.133 396.651 695.133C397.275 695.133 397.782 695.601 397.782 696.225C397.782 696.836 397.275 697.304 396.651 697.304C396.027 697.304 395.533 696.836 395.533 696.225ZM404.094 698.565H405.706V707.34H403.951V704.376C403.483 704.883 402.807 705.156 402.027 705.156C400.233 705.156 398.907 703.7 398.907 701.776C398.907 699.852 400.233 698.422 402.027 698.422C402.911 698.422 403.665 698.76 404.094 699.371V698.565ZM403.977 701.776C403.977 700.619 403.236 700.008 402.352 700.008C401.403 700.008 400.688 700.71 400.688 701.789C400.688 702.842 401.416 703.557 402.352 703.557C403.236 703.557 403.977 702.92 403.977 701.776ZM407.382 702.166V698.565H409.137V702.309C409.137 703.05 409.644 703.544 410.359 703.544C411.035 703.544 411.555 703.05 411.555 702.309V698.565H413.31V702.166C413.31 703.96 412.036 705.156 410.359 705.156C408.643 705.156 407.382 703.96 407.382 702.166ZM414.988 705V698.565H416.743V705H414.988ZM414.741 696.225C414.741 695.601 415.235 695.133 415.859 695.133C416.483 695.133 416.99 695.601 416.99 696.225C416.99 696.836 416.483 697.304 415.859 697.304C415.235 697.304 414.741 696.836 414.741 696.225ZM423.159 695.25H424.914V705H423.302V704.207C422.873 704.818 422.119 705.156 421.235 705.156C419.441 705.156 418.115 703.726 418.115 701.789C418.115 699.852 419.441 698.422 421.235 698.422C422.054 698.422 422.691 698.682 423.159 699.189V695.25ZM423.185 701.789C423.185 700.645 422.444 700.008 421.56 700.008C420.624 700.008 419.896 700.723 419.896 701.776C419.896 702.855 420.611 703.557 421.56 703.557C422.444 703.557 423.185 702.946 423.185 701.789ZM426.655 705V698.565H428.41V705H426.655ZM426.408 696.225C426.408 695.601 426.902 695.133 427.526 695.133C428.15 695.133 428.657 695.601 428.657 696.225C428.657 696.836 428.15 697.304 427.526 697.304C426.902 697.304 426.408 696.836 426.408 696.225ZM434.28 703.531V705C433.864 705.104 433.461 705.156 433.071 705.156C431.446 705.156 430.497 704.35 430.497 702.738V700.047H429.483V698.565H430.497V696.94H432.252V698.565H434.072V700.047H432.252V702.582C432.252 703.31 432.616 703.583 433.448 703.583C433.552 703.583 433.825 703.57 434.28 703.531ZM439.949 698.565H441.795L438.714 705.559C438.129 706.898 437.349 707.496 436.153 707.496C435.789 707.496 435.412 707.444 435.022 707.34V705.871C435.425 705.91 435.672 705.923 435.776 705.923C436.4 705.923 436.816 705.728 437.115 705.052L437.31 704.61L434.84 698.565H436.699L438.272 702.79L439.949 698.565ZM446.577 705V696.42H449.385C452.102 696.394 454.104 698.149 454.065 700.684C454.104 703.167 452.102 705.039 449.385 705H446.577ZM448.332 703.414H449.372C451.101 703.414 452.258 702.335 452.258 700.684C452.258 699.02 451.127 698.006 449.372 698.006H448.332V703.414ZM461.35 702.374H456.839C457.047 703.193 457.71 703.648 458.646 703.648C459.283 703.648 459.881 703.427 460.44 702.998L461.168 704.194C460.401 704.831 459.543 705.156 458.594 705.156C456.605 705.195 455.032 703.648 455.071 701.789C455.032 699.93 456.579 698.383 458.438 698.422C460.219 698.422 461.467 699.735 461.467 701.412C461.467 701.724 461.428 702.049 461.35 702.374ZM456.839 701.139H459.764C459.751 700.346 459.14 699.839 458.373 699.839C457.632 699.839 457.034 700.346 456.839 701.139ZM462.252 703.908L463.136 702.842C463.695 703.427 464.306 703.713 464.943 703.713C465.411 703.713 465.762 703.531 465.762 703.18C465.762 702.907 465.58 702.803 465.099 702.595L464.41 702.309C463.227 701.828 462.655 701.295 462.655 700.346C462.655 699.137 463.617 698.422 465.021 698.422C465.983 698.422 466.75 698.747 467.335 699.384L466.451 700.463C466.022 700.06 465.541 699.852 465.008 699.852C464.579 699.852 464.319 700.008 464.319 700.307C464.319 700.554 464.488 700.671 464.995 700.879L465.619 701.139C466.867 701.646 467.426 702.153 467.426 703.102C467.426 703.739 467.192 704.246 466.711 704.61C466.243 704.974 465.645 705.156 464.917 705.156C463.786 705.156 462.837 704.688 462.252 703.908ZM468.753 705V698.565H470.508V705H468.753ZM468.506 696.225C468.506 695.601 469 695.133 469.624 695.133C470.248 695.133 470.755 695.601 470.755 696.225C470.755 696.836 470.248 697.304 469.624 697.304C469 697.304 468.506 696.836 468.506 696.225ZM477.093 698.565H478.705V704.285C478.705 706.378 477.392 707.496 475.377 707.496C474.168 707.496 473.115 707.093 472.218 706.3L473.141 705.078C473.856 705.611 474.454 705.91 475.234 705.91C476.274 705.91 476.95 705.39 476.95 704.389V704.038C476.482 704.545 475.806 704.805 474.987 704.805C473.206 704.805 471.906 703.492 471.906 701.607C471.906 699.696 473.232 698.422 474.987 698.422C475.91 698.422 476.638 698.76 477.093 699.371V698.565ZM476.976 701.581C476.976 700.476 476.248 699.917 475.351 699.917C474.402 699.917 473.687 700.554 473.687 701.594C473.687 702.634 474.415 703.323 475.351 703.323C476.235 703.323 476.976 702.686 476.976 701.581ZM486.36 701.009V705H484.618V701.243C484.618 700.502 484.137 699.995 483.422 699.995C482.707 699.995 482.2 700.502 482.2 701.243V705H480.445V698.565H482.057V699.15C482.512 698.695 483.175 698.422 483.942 698.422C485.437 698.422 486.36 699.449 486.36 701.009Z" fill="white"/>
<rect x="214" y="516" width="338" height="241" rx="12" stroke="#796EF6" stroke-width="2"/>
<rect x="284" y="424" width="196.928" height="40.0532" rx="16.0213" fill="url(#paint6_linear_6261_3132)"/>
<rect x="284.334" y="424.334" width="196.261" height="39.3857" rx="15.6875" stroke="url(#paint7_linear_6261_3132)" stroke-opacity="0.5" stroke-width="0.667554"/>
<rect x="423.938" y="431.344" width="34.294" height="24.122" rx="6.3938" fill="url(#paint8_linear_6261_3132)"/>
<path d="M438.963 437.45H441.613L436.487 449.168H435.702L430.558 437.45H433.226L436.103 444.425L438.963 437.45ZM450.648 445.192C450.648 447.512 448.695 449.168 446.306 449.168C444.406 449.168 442.906 448.139 442.121 446.553L443.76 445.402C444.458 446.448 445.173 446.989 446.236 446.989C447.405 446.989 448.242 446.308 448.242 445.21C448.242 444.146 447.422 443.553 445.888 443.553H444.44V442.943L446.847 439.578H443.011V437.45H450.422V438.078L447.876 441.67C448.66 441.879 449.306 442.298 449.846 442.908C450.387 443.518 450.648 444.286 450.648 445.192Z" fill="white"/>
<path d="M335.553 448.836V439.541H331.901V437.978H340.966V439.541H337.297V448.836H335.553Z" fill="white"/>
<path d="M343.417 448.836V437.978H345.161V448.836H343.417Z" fill="white"/>
<path d="M358.444 437.797H359.037V448.836H357.293V442.025L354.184 446.105H353.591L350.466 442.008V448.836H348.722V437.797H349.33L353.887 443.867L358.444 437.797Z" fill="white"/>
<path d="M362.59 448.836V437.978H369.729V439.541H364.333V442.321H368.397V443.834H364.333V447.273H369.927V448.836H362.59Z" fill="white"/>
<path d="M372.005 446.664L373.239 445.726C374.029 446.878 374.977 447.454 376.085 447.454C376.644 447.454 377.094 447.317 377.434 447.042C377.785 446.768 377.961 446.401 377.961 445.94C377.961 445.567 377.845 445.277 377.615 445.068C377.385 444.849 376.968 444.597 376.365 444.312L375.164 443.752C374.319 443.368 373.683 442.946 373.256 442.485C372.839 442.014 372.63 441.433 372.63 440.742C372.63 439.875 372.959 439.168 373.617 438.619C374.276 438.071 375.087 437.797 376.052 437.797C376.809 437.797 377.494 437.972 378.109 438.323C378.734 438.674 379.216 439.146 379.556 439.738L378.339 440.676C377.747 439.798 376.984 439.36 376.052 439.36C375.57 439.36 375.175 439.475 374.868 439.705C374.561 439.936 374.407 440.259 374.407 440.676C374.418 440.873 374.44 441.038 374.473 441.169C374.517 441.29 374.621 441.422 374.786 441.564C374.95 441.696 375.065 441.778 375.131 441.811C375.197 441.844 375.411 441.954 375.773 442.14C375.838 442.173 375.888 442.2 375.921 442.222L377.138 442.782C378.048 443.198 378.706 443.643 379.112 444.114C379.529 444.586 379.737 445.173 379.737 445.874C379.737 446.807 379.392 447.563 378.701 448.145C378.021 448.726 377.154 449.017 376.102 449.017C375.224 449.017 374.429 448.808 373.716 448.391C373.003 447.975 372.433 447.399 372.005 446.664Z" fill="white"/>
<path d="M395.974 437.978H397.882L393.654 449.017H393.078L389.837 441.317L386.597 449.017H386.004L381.776 437.978H383.701L386.416 445.315L389.525 437.797H390.134L393.259 445.315L395.974 437.978Z" fill="white"/>
<path d="M406.629 448.836L405.856 447.026H400.97L400.197 448.836H398.338L403.125 437.797H403.717L408.505 448.836H406.629ZM405.231 445.529L403.421 441.038L401.595 445.529H405.231Z" fill="white"/>
<path d="M411.056 448.836V437.978H415.021C416.118 437.978 417.006 438.29 417.686 438.916C418.366 439.53 418.706 440.325 418.706 441.301C418.706 442.277 418.361 443.078 417.67 443.703C416.99 444.328 416.107 444.641 415.021 444.641H412.8V448.836H411.056ZM412.8 443.094H414.988C415.592 443.094 416.063 442.935 416.403 442.617C416.743 442.299 416.913 441.866 416.913 441.317C416.913 440.769 416.743 440.336 416.403 440.018C416.063 439.689 415.592 439.524 414.988 439.524H412.8V443.094Z" fill="white"/>
<g clip-path="url(#clip2_6261_3132)">
<path d="M326.154 433.716V435.026C326.154 435.927 325.919 436.781 325.485 437.529L321.822 443.87L317.994 437.26C317.078 435.681 314.437 435.681 313.521 437.26L309.694 443.846L306.054 437.553C305.608 436.781 305.361 435.903 305.361 435.026V433.716C305.361 432.57 306.301 431.634 307.451 431.634H324.064C325.215 431.634 326.154 432.57 326.154 433.716Z" fill="#7B78FF"/>
<path d="M321.822 443.869L317.994 450.455C317.537 451.25 316.679 451.741 315.752 451.741C314.824 451.741 313.979 451.238 313.51 450.455L309.682 443.845L313.51 437.26C314.425 435.68 317.067 435.68 317.983 437.26L321.822 443.869Z" fill="#12429F"/>
<path d="M326.154 452.678V453.988C326.154 455.134 325.215 456.07 324.064 456.07H307.451C306.301 456.082 305.361 455.146 305.361 453.999V452.666C305.361 451.788 305.596 450.935 306.031 450.186L309.694 443.846L313.521 450.455C313.979 451.25 314.836 451.742 315.763 451.742C316.691 451.742 317.536 451.239 318.006 450.455L321.833 443.869L325.473 450.163C325.919 450.935 326.154 451.812 326.154 452.678Z" fill="#A0D2EB"/>
</g>
</g>
<defs>
<linearGradient id="paint0_linear_6261_3132" x1="383.014" y1="512.004" x2="384.005" y2="296.004" gradientUnits="userSpaceOnUse">
<stop stop-color="#7D72FF"/>
<stop offset="0.965" stop-opacity="0"/>
</linearGradient>
<linearGradient id="paint1_linear_6261_3132" x1="382.502" y1="216.504" x2="381.984" y2="-202.496" gradientUnits="userSpaceOnUse">
<stop stop-color="#6A6A6A"/>
<stop offset="0.965" stop-opacity="0"/>
</linearGradient>
<linearGradient id="paint2_linear_6261_3132" x1="382.517" y1="216" x2="382.5" y2="-197" gradientUnits="userSpaceOnUse">
<stop offset="0.207393" stop-color="#767676"/>
<stop offset="1" stop-opacity="0"/>
</linearGradient>
<radialGradient id="paint3_radial_6261_3132" cx="0" cy="0" r="1" gradientUnits="userSpaceOnUse" gradientTransform="translate(382.004 265.004) rotate(90) scale(100)">
<stop stop-color="#7B78FF"/>
<stop offset="1" stop-color="#050034"/>
</radialGradient>
<radialGradient id="paint4_radial_6261_3132" cx="0" cy="0" r="1" gradientUnits="userSpaceOnUse" gradientTransform="translate(382.504 265.504) rotate(90) scale(75)">
<stop stop-color="#7B78FF"/>
<stop offset="1" stop-color="#050034"/>
</radialGradient>
<radialGradient id="paint5_radial_6261_3132" cx="0" cy="0" r="1" gradientUnits="userSpaceOnUse" gradientTransform="translate(382.504 265.504) rotate(90) scale(49.5)">
<stop stop-color="#7B78FF"/>
<stop offset="1" stop-color="#050034"/>
</radialGradient>
<linearGradient id="paint6_linear_6261_3132" x1="382.464" y1="424" x2="382.464" y2="464.053" gradientUnits="userSpaceOnUse">
<stop stop-color="#0D0016"/>
<stop offset="1" stop-color="#7D72FF"/>
</linearGradient>
<linearGradient id="paint7_linear_6261_3132" x1="382.464" y1="424" x2="382.464" y2="464.053" gradientUnits="userSpaceOnUse">
<stop/>
<stop offset="1" stop-color="#7C70FD"/>
</linearGradient>
<linearGradient id="paint8_linear_6261_3132" x1="441.085" y1="431.344" x2="441.085" y2="455.466" gradientUnits="userSpaceOnUse">
<stop stop-color="#7F7CFF"/>
<stop offset="0.330578" stop-color="#5C58FF"/>
<stop offset="1" stop-color="#373599"/>
</linearGradient>
<clipPath id="clip0_6261_3132">
<rect width="895" height="964" fill="white"/>
</clipPath>
<clipPath id="clip1_6261_3132">
<rect width="47.3331" height="55.6554" fill="white" transform="translate(358.51 236.843)"/>
</clipPath>
<clipPath id="clip2_6261_3132">
<rect width="20.7925" height="24.4484" fill="white" transform="translate(305.361 431.634)"/>
</clipPath>
</defs>
</svg>
