<svg width="1043" height="558" viewBox="0 0 1043 558" fill="none" xmlns="http://www.w3.org/2000/svg">
<g clip-path="url(#clip0_6183_3149)">
<path d="M504 261.007H542.5C571 261.007 575 241.992 612 197.5C632.791 172.5 670 161 701.5 161" stroke="url(#paint0_linear_6183_3149)" stroke-width="8" stroke-linecap="round"/>
<path d="M504 261.5H542.5C571 261.5 575 280.515 612 325.006C632.791 350.007 670 361.507 701.5 361.507" stroke="url(#paint1_linear_6183_3149)" stroke-width="8" stroke-linecap="round"/>
<path d="M703 257.5C705.209 257.5 707 259.291 707 261.5C707 263.709 705.209 265.5 703 265.5V257.5ZM504.5 257.5H564.5V265.5H504.5V257.5ZM564.5 257.5H703V265.5H564.5V257.5Z" fill="url(#paint2_linear_6183_3149)"/>
<path d="M405.5 257C408.261 257 410.5 259.239 410.5 262C410.5 264.761 408.261 267 405.5 267V257ZM-3 257H267V267H-3V257ZM267 257H405.5V267H267V257Z" fill="url(#paint3_linear_6183_3149)"/>
<path d="M504 261.007H542.5C571 261.007 575 241.992 612 197.5C632.791 172.5 670 161 701.5 161" stroke="#7D71FF" stroke-linecap="round" stroke-dasharray="2 2"/>
<path d="M504 261.5H542.5C571 261.5 575 280.515 612 325.006C632.791 350.007 670 361.507 701.5 361.507" stroke="#7D71FF" stroke-linecap="round" stroke-dasharray="2 2"/>
<path d="M703 261C703.276 261 703.5 261.224 703.5 261.5C703.5 261.776 703.276 262 703 262V261ZM504.5 261H505.5V262H504.5V261ZM507.5 261H509.5V262H507.5V261ZM511.5 261H513.5V262H511.5V261ZM515.5 261H517.5V262H515.5V261ZM519.5 261H521.5V262H519.5V261ZM523.5 261H525.5V262H523.5V261ZM527.5 261H529.5V262H527.5V261ZM531.5 261H533.5V262H531.5V261ZM535.5 261H537.5V262H535.5V261ZM539.5 261H541.5V262H539.5V261ZM543.5 261H545.5V262H543.5V261ZM547.5 261H549.5V262H547.5V261ZM551.5 261H553.5V262H551.5V261ZM555.5 261H557.5V262H555.5V261ZM559.5 261H561.5V262H559.5V261ZM563.5 261H564.5V262H563.5V261ZM564.5 261H565.489V262H564.5V261ZM567.468 261H569.446V262H567.468V261ZM571.425 261H573.404V262H571.425V261ZM575.382 261H577.361V262H575.382V261ZM579.339 261H581.318V262H579.339V261ZM583.296 261H585.275V262H583.296V261ZM587.254 261H589.232V262H587.254V261ZM591.211 261H593.189V262H591.211V261ZM595.168 261H597.146V262H595.168V261ZM599.125 261H601.104V262H599.125V261ZM603.082 261H605.061V262H603.082V261ZM607.039 261H609.018V262H607.039V261ZM610.996 261H612.975V262H610.996V261ZM614.954 261H616.932V262H614.954V261ZM618.911 261H620.889V262H618.911V261ZM622.868 261H624.846V262H622.868V261ZM626.825 261H628.804V262H626.825V261ZM630.782 261H632.761V262H630.782V261ZM634.739 261H636.718V262H634.739V261ZM638.696 261H640.675V262H638.696V261ZM642.654 261H644.632V262H642.654V261ZM646.611 261H648.589V262H646.611V261ZM650.568 261H652.546V262H650.568V261ZM654.525 261H656.504V262H654.525V261ZM658.482 261H660.461V262H658.482V261ZM662.439 261H664.418V262H662.439V261ZM666.396 261H668.375V262H666.396V261ZM670.354 261H672.332V262H670.354V261ZM674.311 261H676.289V262H674.311V261ZM678.268 261H680.246V262H678.268V261ZM682.225 261H684.204V262H682.225V261ZM686.182 261H688.161V262H686.182V261ZM690.139 261H692.118V262H690.139V261ZM694.096 261H696.075V262H694.096V261ZM698.054 261H700.032V262H698.054V261ZM702.011 261H703V262H702.011V261Z" fill="#7D72FF"/>
<path d="M405 261.5C405.276 261.5 405.5 261.724 405.5 262C405.5 262.276 405.276 262.5 405 262.5V261.5ZM-8 261.5H-7V262.5H-8V261.5ZM-5 261.5H-3V262.5H-5V261.5ZM-1 261.5H1V262.5H-1V261.5ZM3 261.5H5V262.5H3V261.5ZM7 261.5H9V262.5H7V261.5ZM11 261.5H13V262.5H11V261.5ZM15 261.5H17V262.5H15V261.5ZM19 261.5H21V262.5H19V261.5ZM23 261.5H25V262.5H23V261.5ZM27 261.5H29V262.5H27V261.5ZM31 261.5H33V262.5H31V261.5ZM35 261.5H37V262.5H35V261.5ZM39 261.5H41V262.5H39V261.5ZM43 261.5H45V262.5H43V261.5ZM47 261.5H49V262.5H47V261.5ZM51 261.5H53V262.5H51V261.5ZM55 261.5H57V262.5H55V261.5ZM59 261.5H61V262.5H59V261.5ZM63 261.5H65V262.5H63V261.5ZM67 261.5H69V262.5H67V261.5ZM71 261.5H73V262.5H71V261.5ZM75 261.5H77V262.5H75V261.5ZM79 261.5H81V262.5H79V261.5ZM83 261.5H85V262.5H83V261.5ZM87 261.5H89V262.5H87V261.5ZM91 261.5H93V262.5H91V261.5ZM95 261.5H97V262.5H95V261.5ZM99 261.5H101V262.5H99V261.5ZM103 261.5H105V262.5H103V261.5ZM107 261.5H109V262.5H107V261.5ZM111 261.5H113V262.5H111V261.5ZM115 261.5H117V262.5H115V261.5ZM119 261.5H121V262.5H119V261.5ZM123 261.5H125V262.5H123V261.5ZM127 261.5H129V262.5H127V261.5ZM131 261.5H133V262.5H131V261.5ZM135 261.5H137V262.5H135V261.5ZM139 261.5H141V262.5H139V261.5ZM143 261.5H145V262.5H143V261.5ZM147 261.5H149V262.5H147V261.5ZM151 261.5H153V262.5H151V261.5ZM155 261.5H157V262.5H155V261.5ZM159 261.5H161V262.5H159V261.5ZM163 261.5H165V262.5H163V261.5ZM167 261.5H169V262.5H167V261.5ZM171 261.5H173V262.5H171V261.5ZM175 261.5H177V262.5H175V261.5ZM179 261.5H181V262.5H179V261.5ZM183 261.5H185V262.5H183V261.5ZM187 261.5H189V262.5H187V261.5ZM191 261.5H193V262.5H191V261.5ZM195 261.5H197V262.5H195V261.5ZM199 261.5H201V262.5H199V261.5ZM203 261.5H205V262.5H203V261.5ZM207 261.5H208V262.5H207V261.5ZM208 261.5H209.005V262.5H208V261.5ZM211.015 261.5H213.026V262.5H211.015V261.5ZM215.036 261.5H217.046V262.5H215.036V261.5ZM219.056 261.5H221.066V262.5H219.056V261.5ZM223.077 261.5H225.087V262.5H223.077V261.5ZM227.097 261.5H229.107V262.5H227.097V261.5ZM231.117 261.5H233.128V262.5H231.117V261.5ZM235.138 261.5H237.148V262.5H235.138V261.5ZM239.158 261.5H241.168V262.5H239.158V261.5ZM243.179 261.5H245.189V262.5H243.179V261.5ZM247.199 261.5H249.209V262.5H247.199V261.5ZM251.219 261.5H253.23V262.5H251.219V261.5ZM255.24 261.5H257.25V262.5H255.24V261.5ZM259.26 261.5H261.27V262.5H259.26V261.5ZM263.281 261.5H265.291V262.5H263.281V261.5ZM267.301 261.5H269.311V262.5H267.301V261.5ZM271.321 261.5H273.332V262.5H271.321V261.5ZM275.342 261.5H277.352V262.5H275.342V261.5ZM279.362 261.5H281.372V262.5H279.362V261.5ZM283.383 261.5H285.393V262.5H283.383V261.5ZM287.403 261.5H289.413V262.5H287.403V261.5ZM291.423 261.5H293.434V262.5H291.423V261.5ZM295.444 261.5H297.454V262.5H295.444V261.5ZM299.464 261.5H301.474V262.5H299.464V261.5ZM303.485 261.5H305.495V262.5H303.485V261.5ZM307.505 261.5H309.515V262.5H307.505V261.5ZM311.525 261.5H313.536V262.5H311.525V261.5ZM315.546 261.5H317.556V262.5H315.546V261.5ZM319.566 261.5H321.576V262.5H319.566V261.5ZM323.587 261.5H325.597V262.5H323.587V261.5ZM327.607 261.5H329.617V262.5H327.607V261.5ZM331.627 261.5H333.638V262.5H331.627V261.5ZM335.648 261.5H337.658V262.5H335.648V261.5ZM339.668 261.5H341.678V262.5H339.668V261.5ZM343.689 261.5H345.699V262.5H343.689V261.5ZM347.709 261.5H349.719V262.5H347.709V261.5ZM351.73 261.5H353.74V262.5H351.73V261.5ZM355.75 261.5H357.76V262.5H355.75V261.5ZM359.77 261.5H361.781V262.5H359.77V261.5ZM363.791 261.5H365.801V262.5H363.791V261.5ZM367.811 261.5H369.821V262.5H367.811V261.5ZM371.832 261.5H373.842V262.5H371.832V261.5ZM375.852 261.5H377.862V262.5H375.852V261.5ZM379.872 261.5H381.883V262.5H379.872V261.5ZM383.893 261.5H385.903V262.5H383.893V261.5ZM387.913 261.5H389.923V262.5H387.913V261.5ZM391.934 261.5H393.944V262.5H391.934V261.5ZM395.954 261.5H397.964V262.5H395.954V261.5ZM399.975 261.5H401.985V262.5H399.975V261.5ZM403.995 261.5H405V262.5H403.995V261.5Z" fill="url(#paint4_linear_6183_3149)"/>
<circle cx="454" cy="262" r="100" fill="url(#paint5_radial_6183_3149)" fill-opacity="0.3"/>
<circle cx="454" cy="262" r="100.25" stroke="white" stroke-opacity="0.5" stroke-width="0.5"/>
<circle cx="454.5" cy="261.5" r="75" fill="url(#paint6_radial_6183_3149)" fill-opacity="0.5"/>
<circle cx="454.5" cy="261.5" r="75.25" stroke="white" stroke-opacity="0.5" stroke-width="0.5"/>
<circle cx="454.5" cy="261.5" r="49.5" fill="url(#paint7_radial_6183_3149)"/>
<circle cx="454.5" cy="261.5" r="50" stroke="white" stroke-opacity="0.5"/>
<g clip-path="url(#clip1_6183_3149)">
<path d="M477.333 238.74V241.723C477.333 243.773 476.799 245.717 475.81 247.421L467.471 261.854L458.758 246.809C456.673 243.214 450.66 243.214 448.575 246.809L439.862 261.801L431.577 247.474C430.561 245.717 430 243.72 430 241.723V238.74C430 236.13 432.138 234 434.757 234H472.576C475.195 234 477.333 236.13 477.333 238.74Z" fill="#7B78FF"/>
<path d="M467.471 261.853L458.758 276.845C457.716 278.656 455.765 279.775 453.653 279.775C451.542 279.775 449.617 278.63 448.548 276.845L439.835 261.8L448.548 246.808C450.633 243.213 456.647 243.213 458.731 246.808L467.471 261.853Z" fill="#12429F"/>
<path d="M477.333 281.906V284.888C477.333 287.498 475.195 289.628 472.576 289.628H434.757C432.138 289.655 430 287.525 430 284.915V281.879C430 279.882 430.535 277.938 431.523 276.234L439.862 261.801L448.575 276.846C449.617 278.657 451.568 279.776 453.68 279.776C455.791 279.776 457.716 278.631 458.785 276.846L467.498 261.854L475.783 276.181C476.799 277.938 477.333 279.935 477.333 281.906Z" fill="#A0D2EB"/>
</g>
<rect x="517.627" y="459" width="51.3726" height="36.135" rx="9.57795" fill="url(#paint8_linear_6183_3149)"/>
<path d="M540.135 468.678H544.106L536.426 486.231H535.251L527.545 468.678H531.541L535.851 479.126L540.135 468.678ZM557.64 480.276C557.64 483.75 554.715 486.231 551.136 486.231C548.289 486.231 546.042 484.69 544.867 482.313L547.322 480.589C548.367 482.156 549.438 482.966 551.032 482.966C552.782 482.966 554.036 481.947 554.036 480.302C554.036 478.708 552.808 477.82 550.509 477.82H548.341V476.906L551.946 471.865H546.199V468.678H557.301V469.618L553.487 474.999C554.662 475.313 555.629 475.939 556.439 476.854C557.248 477.768 557.64 478.917 557.64 480.276Z" fill="white"/>
<path d="M385.227 485.202V471.278H379.756V468.937H393.335V471.278H387.839V485.202H385.227Z" fill="white"/>
<path d="M397.007 485.202V468.937H399.619V485.202H397.007Z" fill="white"/>
<path d="M419.518 468.666H420.405V485.202H417.793V475L413.135 481.111H412.248L407.566 474.975V485.202H404.954V468.666H405.865L412.692 477.76L419.518 468.666Z" fill="white"/>
<path d="M425.728 485.202V468.937H436.423V471.278H428.34V475.443H434.427V477.71H428.34V482.861H436.719V485.202H425.728Z" fill="white"/>
<path d="M439.832 481.949L441.681 480.544C442.864 482.27 444.285 483.132 445.944 483.132C446.782 483.132 447.456 482.927 447.965 482.516C448.491 482.105 448.754 481.555 448.754 480.865C448.754 480.306 448.581 479.871 448.236 479.559C447.891 479.23 447.267 478.852 446.363 478.425L444.564 477.587C443.299 477.012 442.346 476.38 441.705 475.69C441.081 474.983 440.769 474.112 440.769 473.077C440.769 471.779 441.262 470.72 442.248 469.898C443.233 469.077 444.449 468.666 445.895 468.666C447.029 468.666 448.055 468.929 448.975 469.455C449.912 469.98 450.635 470.687 451.144 471.574L449.32 472.979C448.433 471.664 447.291 471.007 445.895 471.007C445.172 471.007 444.581 471.18 444.121 471.525C443.66 471.87 443.43 472.354 443.43 472.979C443.447 473.274 443.48 473.521 443.529 473.718C443.595 473.899 443.751 474.096 443.997 474.309C444.244 474.507 444.416 474.63 444.515 474.679C444.613 474.728 444.934 474.893 445.476 475.172C445.575 475.221 445.648 475.262 445.698 475.295L447.521 476.133C448.885 476.757 449.871 477.423 450.479 478.129C451.103 478.836 451.415 479.715 451.415 480.766C451.415 482.163 450.898 483.296 449.863 484.167C448.844 485.038 447.546 485.473 445.969 485.473C444.654 485.473 443.463 485.161 442.395 484.537C441.328 483.912 440.473 483.05 439.832 481.949Z" fill="white"/>
<path d="M475.737 468.937H478.596L472.263 485.473H471.4L466.545 473.94L461.69 485.473H460.803L454.47 468.937H457.353L461.419 479.928L466.077 468.666H466.989L471.671 479.928L475.737 468.937Z" fill="white"/>
<path d="M491.699 485.202L490.541 482.491H483.222L482.064 485.202H479.279L486.45 468.666H487.337L494.509 485.202H491.699ZM489.605 480.249L486.894 473.521L484.158 480.249H489.605Z" fill="white"/>
<path d="M498.331 485.202V468.937H504.271C505.914 468.937 507.244 469.405 508.263 470.342C509.282 471.262 509.791 472.453 509.791 473.915C509.791 475.377 509.273 476.577 508.238 477.513C507.22 478.45 505.897 478.918 504.271 478.918H500.944V485.202H498.331ZM500.944 476.601H504.221C505.125 476.601 505.831 476.363 506.341 475.887C506.85 475.41 507.105 474.761 507.105 473.94C507.105 473.118 506.85 472.469 506.341 471.993C505.831 471.5 505.125 471.254 504.221 471.254H500.944V476.601Z" fill="white"/>
<g clip-path="url(#clip2_6183_3149)">
<path d="M371.147 462.554V464.516C371.147 465.866 370.796 467.145 370.145 468.266L364.658 477.764L358.924 467.863C357.552 465.498 353.595 465.498 352.223 467.863L346.49 477.729L341.038 468.301C340.369 467.145 340 465.831 340 464.516V462.554C340 460.836 341.407 459.435 343.131 459.435H368.017C369.74 459.435 371.147 460.836 371.147 462.554Z" fill="#7B78FF"/>
<path d="M364.658 477.764L358.924 487.629C358.238 488.821 356.954 489.557 355.565 489.557C354.175 489.557 352.909 488.804 352.206 487.629L346.472 477.729L352.206 467.863C353.577 465.497 357.535 465.497 358.906 467.863L364.658 477.764Z" fill="#12429F"/>
<path d="M371.147 490.959V492.921C371.147 494.639 369.74 496.04 368.017 496.04H343.131C341.407 496.058 340 494.656 340 492.939V490.941C340 489.627 340.352 488.348 341.002 487.226L346.49 477.729L352.223 487.629C352.909 488.821 354.193 489.557 355.582 489.557C356.972 489.557 358.238 488.803 358.942 487.629L364.675 477.764L370.127 487.191C370.796 488.348 371.147 489.662 371.147 490.959Z" fill="#A0D2EB"/>
</g>
<rect x="718" y="141" width="263" height="39" rx="19.5" fill="url(#paint9_linear_6183_3149)"/>
<rect x="718" y="242" width="263" height="39" rx="19.5" fill="url(#paint10_linear_6183_3149)"/>
<rect x="718" y="342" width="263" height="39" rx="19.5" fill="url(#paint11_linear_6183_3149)"/>
<path d="M732.91 161.451V156.42H734.665V161.581C734.665 162.829 735.445 163.531 736.55 163.531C737.681 163.531 738.435 162.829 738.435 161.581V156.42H740.19V161.451C740.19 163.726 738.63 165.156 736.55 165.156C734.444 165.156 732.91 163.726 732.91 161.451ZM747.825 161.009V165H746.083V161.243C746.083 160.502 745.602 159.995 744.887 159.995C744.172 159.995 743.665 160.502 743.665 161.243V165H741.91V158.565H743.522V159.15C743.977 158.695 744.64 158.422 745.407 158.422C746.902 158.422 747.825 159.449 747.825 161.009ZM749.515 165V158.565H751.27V165H749.515ZM749.268 156.225C749.268 155.601 749.762 155.133 750.386 155.133C751.01 155.133 751.517 155.601 751.517 156.225C751.517 156.836 751.01 157.304 750.386 157.304C749.762 157.304 749.268 156.836 749.268 156.225ZM755.06 157.668V158.565H756.477V160.047H755.06V165H753.305V160.047H752.395V158.565H753.305V157.512C753.305 155.9 754.241 155.094 755.788 155.094C756.126 155.094 756.451 155.146 756.75 155.237V156.706C756.555 156.68 756.386 156.667 756.23 156.667C755.437 156.667 755.06 156.94 755.06 157.668ZM757.647 165V158.565H759.402V165H757.647ZM757.4 156.225C757.4 155.601 757.894 155.133 758.518 155.133C759.142 155.133 759.649 155.601 759.649 156.225C759.649 156.836 759.142 157.304 758.518 157.304C757.894 157.304 757.4 156.836 757.4 156.225ZM767.058 162.374H762.547C762.755 163.193 763.418 163.648 764.354 163.648C764.991 163.648 765.589 163.427 766.148 162.998L766.876 164.194C766.109 164.831 765.251 165.156 764.302 165.156C762.313 165.195 760.74 163.648 760.779 161.789C760.74 159.93 762.287 158.383 764.146 158.422C765.927 158.422 767.175 159.735 767.175 161.412C767.175 161.724 767.136 162.049 767.058 162.374ZM762.547 161.139H765.472C765.459 160.346 764.848 159.839 764.081 159.839C763.34 159.839 762.742 160.346 762.547 161.139ZM773.225 155.25H774.98V165H773.368V164.207C772.939 164.818 772.185 165.156 771.301 165.156C769.507 165.156 768.181 163.726 768.181 161.789C768.181 159.852 769.507 158.422 771.301 158.422C772.12 158.422 772.757 158.682 773.225 159.189V155.25ZM773.251 161.789C773.251 160.645 772.51 160.008 771.626 160.008C770.69 160.008 769.962 160.723 769.962 161.776C769.962 162.855 770.677 163.557 771.626 163.557C772.51 163.557 773.251 162.946 773.251 161.789ZM780.481 165V156.42H782.236V163.414H785.993V165H780.481ZM787.182 165V158.565H788.937V165H787.182ZM786.935 156.225C786.935 155.601 787.429 155.133 788.053 155.133C788.677 155.133 789.184 155.601 789.184 156.225C789.184 156.836 788.677 157.304 788.053 157.304C787.429 157.304 786.935 156.836 786.935 156.225ZM795.496 158.565H797.108V167.34H795.353V164.376C794.885 164.883 794.209 165.156 793.429 165.156C791.635 165.156 790.309 163.7 790.309 161.776C790.309 159.852 791.635 158.422 793.429 158.422C794.313 158.422 795.067 158.76 795.496 159.371V158.565ZM795.379 161.776C795.379 160.619 794.638 160.008 793.754 160.008C792.805 160.008 792.09 160.71 792.09 161.789C792.09 162.842 792.818 163.557 793.754 163.557C794.638 163.557 795.379 162.92 795.379 161.776ZM798.784 162.166V158.565H800.539V162.309C800.539 163.05 801.046 163.544 801.761 163.544C802.437 163.544 802.957 163.05 802.957 162.309V158.565H804.712V162.166C804.712 163.96 803.438 165.156 801.761 165.156C800.045 165.156 798.784 163.96 798.784 162.166ZM806.39 165V158.565H808.145V165H806.39ZM806.143 156.225C806.143 155.601 806.637 155.133 807.261 155.133C807.885 155.133 808.392 155.601 808.392 156.225C808.392 156.836 807.885 157.304 807.261 157.304C806.637 157.304 806.143 156.836 806.143 156.225ZM814.561 155.25H816.316V165H814.704V164.207C814.275 164.818 813.521 165.156 812.637 165.156C810.843 165.156 809.517 163.726 809.517 161.789C809.517 159.852 810.843 158.422 812.637 158.422C813.456 158.422 814.093 158.682 814.561 159.189V155.25ZM814.587 161.789C814.587 160.645 813.846 160.008 812.962 160.008C812.026 160.008 811.298 160.723 811.298 161.776C811.298 162.855 812.013 163.557 812.962 163.557C813.846 163.557 814.587 162.946 814.587 161.789ZM818.057 165V158.565H819.812V165H818.057ZM817.81 156.225C817.81 155.601 818.304 155.133 818.928 155.133C819.552 155.133 820.059 155.601 820.059 156.225C820.059 156.836 819.552 157.304 818.928 157.304C818.304 157.304 817.81 156.836 817.81 156.225ZM825.682 163.531V165C825.266 165.104 824.863 165.156 824.473 165.156C822.848 165.156 821.899 164.35 821.899 162.738V160.047H820.885V158.565H821.899V156.94H823.654V158.565H825.474V160.047H823.654V162.582C823.654 163.31 824.018 163.583 824.85 163.583C824.954 163.583 825.227 163.57 825.682 163.531ZM831.35 158.565H833.196L830.115 165.559C829.53 166.898 828.75 167.496 827.554 167.496C827.19 167.496 826.813 167.444 826.423 167.34V165.871C826.826 165.91 827.073 165.923 827.177 165.923C827.801 165.923 828.217 165.728 828.516 165.052L828.711 164.61L826.241 158.565H828.1L829.673 162.79L831.35 158.565ZM843.256 161.178V165H841.644V164.376C841.176 164.857 840.5 165.156 839.681 165.156C838.316 165.156 837.458 164.363 837.458 163.232C837.458 162.075 838.394 161.36 839.889 161.36H841.501V161.074C841.501 160.359 841.085 159.943 840.305 159.943C839.642 159.943 839.174 160.216 838.602 160.827L837.692 159.748C838.433 158.864 839.369 158.422 840.5 158.422C842.177 158.422 843.256 159.397 843.256 161.178ZM841.501 162.595V162.517H840.123C839.551 162.517 839.226 162.738 839.226 163.167C839.226 163.596 839.59 163.869 840.149 163.869C840.916 163.869 841.501 163.336 841.501 162.595ZM844.581 161.776C844.581 159.891 846.115 158.422 848.026 158.422C849.287 158.422 850.262 159.02 850.821 160.008L849.599 160.957C849.196 160.372 848.728 160.021 848.052 160.021C847.064 160.021 846.362 160.775 846.362 161.776C846.362 162.803 847.064 163.544 848.052 163.544C848.715 163.544 849.183 163.206 849.599 162.621L850.821 163.557C850.262 164.545 849.274 165.156 848.026 165.156C846.141 165.195 844.555 163.635 844.581 161.776ZM856.07 158.565V160.112H855.602C854.549 160.112 853.873 160.684 853.873 161.789V165H852.118V158.565H853.73V159.332C854.159 158.799 854.783 158.487 855.498 158.487C855.719 158.487 855.901 158.513 856.07 158.565ZM856.667 161.776C856.628 159.943 858.227 158.383 860.112 158.422C861.997 158.396 863.609 159.943 863.57 161.776C863.609 163.609 861.984 165.182 860.099 165.143C858.214 165.182 856.628 163.609 856.667 161.776ZM861.776 161.789C861.776 160.788 861.061 160.021 860.112 160.021C859.137 160.021 858.448 160.762 858.448 161.789C858.448 162.79 859.137 163.531 860.112 163.531C861.061 163.531 861.776 162.79 861.776 161.789ZM864.355 163.908L865.239 162.842C865.798 163.427 866.409 163.713 867.046 163.713C867.514 163.713 867.865 163.531 867.865 163.18C867.865 162.907 867.683 162.803 867.202 162.595L866.513 162.309C865.33 161.828 864.758 161.295 864.758 160.346C864.758 159.137 865.72 158.422 867.124 158.422C868.086 158.422 868.853 158.747 869.438 159.384L868.554 160.463C868.125 160.06 867.644 159.852 867.111 159.852C866.682 159.852 866.422 160.008 866.422 160.307C866.422 160.554 866.591 160.671 867.098 160.879L867.722 161.139C868.97 161.646 869.529 162.153 869.529 163.102C869.529 163.739 869.295 164.246 868.814 164.61C868.346 164.974 867.748 165.156 867.02 165.156C865.889 165.156 864.94 164.688 864.355 163.908ZM870.271 163.908L871.155 162.842C871.714 163.427 872.325 163.713 872.962 163.713C873.43 163.713 873.781 163.531 873.781 163.18C873.781 162.907 873.599 162.803 873.118 162.595L872.429 162.309C871.246 161.828 870.674 161.295 870.674 160.346C870.674 159.137 871.636 158.422 873.04 158.422C874.002 158.422 874.769 158.747 875.354 159.384L874.47 160.463C874.041 160.06 873.56 159.852 873.027 159.852C872.598 159.852 872.338 160.008 872.338 160.307C872.338 160.554 872.507 160.671 873.014 160.879L873.638 161.139C874.886 161.646 875.445 162.153 875.445 163.102C875.445 163.739 875.211 164.246 874.73 164.61C874.262 164.974 873.664 165.156 872.936 165.156C871.805 165.156 870.856 164.688 870.271 163.908ZM890.335 161.009V165H888.58V161.256C888.58 160.489 888.125 160.008 887.436 160.008C886.747 160.008 886.253 160.502 886.253 161.217V165H884.498V161.256C884.498 160.489 884.043 160.008 883.354 160.008C882.639 160.008 882.171 160.489 882.171 161.256V165H880.416V158.565H882.028V159.137C882.457 158.682 883.107 158.422 883.848 158.422C884.693 158.422 885.33 158.734 885.759 159.345C886.266 158.773 887.02 158.422 887.904 158.422C889.412 158.422 890.335 159.449 890.335 161.009ZM897.402 161.178V165H895.79V164.376C895.322 164.857 894.646 165.156 893.827 165.156C892.462 165.156 891.604 164.363 891.604 163.232C891.604 162.075 892.54 161.36 894.035 161.36H895.647V161.074C895.647 160.359 895.231 159.943 894.451 159.943C893.788 159.943 893.32 160.216 892.748 160.827L891.838 159.748C892.579 158.864 893.515 158.422 894.646 158.422C896.323 158.422 897.402 159.397 897.402 161.178ZM895.647 162.595V162.517H894.269C893.697 162.517 893.372 162.738 893.372 163.167C893.372 163.596 893.736 163.869 894.295 163.869C895.062 163.869 895.647 163.336 895.647 162.595ZM903.225 163.531V165C902.809 165.104 902.406 165.156 902.016 165.156C900.391 165.156 899.442 164.35 899.442 162.738V160.047H898.428V158.565H899.442V156.94H901.197V158.565H903.017V160.047H901.197V162.582C901.197 163.31 901.561 163.583 902.393 163.583C902.497 163.583 902.77 163.57 903.225 163.531ZM904.434 162.166V158.565H906.189V162.309C906.189 163.05 906.696 163.544 907.411 163.544C908.087 163.544 908.607 163.05 908.607 162.309V158.565H910.362V162.166C910.362 163.96 909.088 165.156 907.411 165.156C905.695 165.156 904.434 163.96 904.434 162.166ZM915.992 158.565V160.112H915.524C914.471 160.112 913.795 160.684 913.795 161.789V165H912.04V158.565H913.652V159.332C914.081 158.799 914.705 158.487 915.42 158.487C915.641 158.487 915.823 158.513 915.992 158.565ZM917.08 165V158.565H918.835V165H917.08ZM916.833 156.225C916.833 155.601 917.327 155.133 917.951 155.133C918.575 155.133 919.082 155.601 919.082 156.225C919.082 156.836 918.575 157.304 917.951 157.304C917.327 157.304 916.833 156.836 916.833 156.225ZM924.705 163.531V165C924.289 165.104 923.886 165.156 923.496 165.156C921.871 165.156 920.922 164.35 920.922 162.738V160.047H919.908V158.565H920.922V156.94H922.677V158.565H924.497V160.047H922.677V162.582C922.677 163.31 923.041 163.583 923.873 163.583C923.977 163.583 924.25 163.57 924.705 163.531ZM925.979 165V158.565H927.734V165H925.979ZM925.732 156.225C925.732 155.601 926.226 155.133 926.85 155.133C927.474 155.133 927.981 155.601 927.981 156.225C927.981 156.836 927.474 157.304 926.85 157.304C926.226 157.304 925.732 156.836 925.732 156.225ZM935.386 162.374H930.875C931.083 163.193 931.746 163.648 932.682 163.648C933.319 163.648 933.917 163.427 934.476 162.998L935.204 164.194C934.437 164.831 933.579 165.156 932.63 165.156C930.641 165.195 929.068 163.648 929.107 161.789C929.068 159.93 930.615 158.383 932.474 158.422C934.255 158.422 935.503 159.735 935.503 161.412C935.503 161.724 935.464 162.049 935.386 162.374ZM930.875 161.139H933.8C933.787 160.346 933.176 159.839 932.409 159.839C931.668 159.839 931.07 160.346 930.875 161.139ZM936.287 163.908L937.171 162.842C937.73 163.427 938.341 163.713 938.978 163.713C939.446 163.713 939.797 163.531 939.797 163.18C939.797 162.907 939.615 162.803 939.134 162.595L938.445 162.309C937.262 161.828 936.69 161.295 936.69 160.346C936.69 159.137 937.652 158.422 939.056 158.422C940.018 158.422 940.785 158.747 941.37 159.384L940.486 160.463C940.057 160.06 939.576 159.852 939.043 159.852C938.614 159.852 938.354 160.008 938.354 160.307C938.354 160.554 938.523 160.671 939.03 160.879L939.654 161.139C940.902 161.646 941.461 162.153 941.461 163.102C941.461 163.739 941.227 164.246 940.746 164.61C940.278 164.974 939.68 165.156 938.952 165.156C937.821 165.156 936.872 164.688 936.287 163.908Z" fill="white"/>
<path d="M734.925 266V259.006H732.182V257.42H739.436V259.006H736.68V266H734.925ZM740.475 266V259.565H742.23V266H740.475ZM740.228 257.225C740.228 256.601 740.722 256.133 741.346 256.133C741.97 256.133 742.477 256.601 742.477 257.225C742.477 257.836 741.97 258.304 741.346 258.304C740.722 258.304 740.228 257.836 740.228 257.225ZM753.886 262.009V266H752.131V262.256C752.131 261.489 751.676 261.008 750.987 261.008C750.298 261.008 749.804 261.502 749.804 262.217V266H748.049V262.256C748.049 261.489 747.594 261.008 746.905 261.008C746.19 261.008 745.722 261.489 745.722 262.256V266H743.967V259.565H745.579V260.137C746.008 259.682 746.658 259.422 747.399 259.422C748.244 259.422 748.881 259.734 749.31 260.345C749.817 259.773 750.571 259.422 751.455 259.422C752.963 259.422 753.886 260.449 753.886 262.009ZM761.473 263.374H756.962C757.17 264.193 757.833 264.648 758.769 264.648C759.406 264.648 760.004 264.427 760.563 263.998L761.291 265.194C760.524 265.831 759.666 266.156 758.717 266.156C756.728 266.195 755.155 264.648 755.194 262.789C755.155 260.93 756.702 259.383 758.561 259.422C760.342 259.422 761.59 260.735 761.59 262.412C761.59 262.724 761.551 263.049 761.473 263.374ZM756.962 262.139H759.887C759.874 261.346 759.263 260.839 758.496 260.839C757.755 260.839 757.157 261.346 756.962 262.139ZM773.401 262.789C773.401 264.726 772.075 266.156 770.281 266.156C769.397 266.156 768.669 265.818 768.214 265.207V266H766.602V256.25H768.357V260.189C768.825 259.682 769.462 259.422 770.281 259.422C772.075 259.422 773.401 260.852 773.401 262.789ZM771.62 262.776C771.62 261.723 770.892 261.008 769.956 261.008C769.059 261.008 768.331 261.645 768.331 262.789C768.331 263.946 769.072 264.557 769.956 264.557C770.905 264.557 771.62 263.855 771.62 262.776ZM774.414 262.776C774.375 260.943 775.974 259.383 777.859 259.422C779.744 259.396 781.356 260.943 781.317 262.776C781.356 264.609 779.731 266.182 777.846 266.143C775.961 266.182 774.375 264.609 774.414 262.776ZM779.523 262.789C779.523 261.788 778.808 261.021 777.859 261.021C776.884 261.021 776.195 261.762 776.195 262.789C776.195 263.79 776.884 264.531 777.859 264.531C778.808 264.531 779.523 263.79 779.523 262.789ZM782.622 263.166V259.565H784.377V263.309C784.377 264.05 784.884 264.544 785.599 264.544C786.275 264.544 786.795 264.05 786.795 263.309V259.565H788.55V263.166C788.55 264.96 787.276 266.156 785.599 266.156C783.883 266.156 782.622 264.96 782.622 263.166ZM796.143 262.009V266H794.401V262.243C794.401 261.502 793.92 260.995 793.205 260.995C792.49 260.995 791.983 261.502 791.983 262.243V266H790.228V259.565H791.84V260.15C792.295 259.695 792.958 259.422 793.725 259.422C795.22 259.422 796.143 260.449 796.143 262.009ZM802.513 256.25H804.268V266H802.656V265.207C802.227 265.818 801.473 266.156 800.589 266.156C798.795 266.156 797.469 264.726 797.469 262.789C797.469 260.852 798.795 259.422 800.589 259.422C801.408 259.422 802.045 259.682 802.513 260.189V256.25ZM802.539 262.789C802.539 261.645 801.798 261.008 800.914 261.008C799.978 261.008 799.25 261.723 799.25 262.776C799.25 263.855 799.965 264.557 800.914 264.557C801.798 264.557 802.539 263.946 802.539 262.789ZM813.786 264.531V266C813.37 266.104 812.967 266.156 812.577 266.156C810.952 266.156 810.003 265.35 810.003 263.738V261.047H808.989V259.565H810.003V257.94H811.758V259.565H813.578V261.047H811.758V263.582C811.758 264.31 812.122 264.583 812.954 264.583C813.058 264.583 813.331 264.57 813.786 264.531ZM814.57 262.776C814.531 260.943 816.13 259.383 818.015 259.422C819.9 259.396 821.512 260.943 821.473 262.776C821.512 264.609 819.887 266.182 818.002 266.143C816.117 266.182 814.531 264.609 814.57 262.776ZM819.679 262.789C819.679 261.788 818.964 261.021 818.015 261.021C817.04 261.021 816.351 261.762 816.351 262.789C816.351 263.79 817.04 264.531 818.015 264.531C818.964 264.531 819.679 263.79 819.679 262.789ZM829.187 266H827.185L824.598 262.438V266H822.843V256.25H824.598V262.308L826.912 259.565H828.992L826.574 262.412L829.187 266ZM835.778 263.374H831.267C831.475 264.193 832.138 264.648 833.074 264.648C833.711 264.648 834.309 264.427 834.868 263.998L835.596 265.194C834.829 265.831 833.971 266.156 833.022 266.156C831.033 266.195 829.46 264.648 829.499 262.789C829.46 260.93 831.007 259.383 832.866 259.422C834.647 259.422 835.895 260.735 835.895 262.412C835.895 262.724 835.856 263.049 835.778 263.374ZM831.267 262.139H834.192C834.179 261.346 833.568 260.839 832.801 260.839C832.06 260.839 831.462 261.346 831.267 262.139ZM843.18 262.009V266H841.438V262.243C841.438 261.502 840.957 260.995 840.242 260.995C839.527 260.995 839.02 261.502 839.02 262.243V266H837.265V259.565H838.877V260.15C839.332 259.695 839.995 259.422 840.762 259.422C842.257 259.422 843.18 260.449 843.18 262.009ZM847.928 264.908L848.812 263.842C849.371 264.427 849.982 264.713 850.619 264.713C851.087 264.713 851.438 264.531 851.438 264.18C851.438 263.907 851.256 263.803 850.775 263.595L850.086 263.309C848.903 262.828 848.331 262.295 848.331 261.346C848.331 260.137 849.293 259.422 850.697 259.422C851.659 259.422 852.426 259.747 853.011 260.384L852.127 261.463C851.698 261.06 851.217 260.852 850.684 260.852C850.255 260.852 849.995 261.008 849.995 261.307C849.995 261.554 850.164 261.671 850.671 261.879L851.295 262.139C852.543 262.646 853.102 263.153 853.102 264.102C853.102 264.739 852.868 265.246 852.387 265.61C851.919 265.974 851.321 266.156 850.593 266.156C849.462 266.156 848.513 265.688 847.928 264.908ZM858.563 264.531V266C858.147 266.104 857.744 266.156 857.354 266.156C855.729 266.156 854.78 265.35 854.78 263.738V261.047H853.766V259.565H854.78V257.94H856.535V259.565H858.355V261.047H856.535V263.582C856.535 264.31 856.899 264.583 857.731 264.583C857.835 264.583 858.108 264.57 858.563 264.531ZM865.232 262.178V266H863.62V265.376C863.152 265.857 862.476 266.156 861.657 266.156C860.292 266.156 859.434 265.363 859.434 264.232C859.434 263.075 860.37 262.36 861.865 262.36H863.477V262.074C863.477 261.359 863.061 260.943 862.281 260.943C861.618 260.943 861.15 261.216 860.578 261.827L859.668 260.748C860.409 259.864 861.345 259.422 862.476 259.422C864.153 259.422 865.232 260.397 865.232 262.178ZM863.477 263.595V263.517H862.099C861.527 263.517 861.202 263.738 861.202 264.167C861.202 264.596 861.566 264.869 862.125 264.869C862.892 264.869 863.477 264.336 863.477 263.595ZM872.836 262.009V266H871.094V262.243C871.094 261.502 870.613 260.995 869.898 260.995C869.183 260.995 868.676 261.502 868.676 262.243V266H866.921V259.565H868.533V260.15C868.988 259.695 869.651 259.422 870.418 259.422C871.913 259.422 872.836 260.449 872.836 262.009ZM879.205 256.25H880.96V266H879.348V265.207C878.919 265.818 878.165 266.156 877.281 266.156C875.487 266.156 874.161 264.726 874.161 262.789C874.161 260.852 875.487 259.422 877.281 259.422C878.1 259.422 878.737 259.682 879.205 260.189V256.25ZM879.231 262.789C879.231 261.645 878.49 261.008 877.606 261.008C876.67 261.008 875.942 261.723 875.942 262.776C875.942 263.855 876.657 264.557 877.606 264.557C878.49 264.557 879.231 263.946 879.231 262.789ZM888.096 262.178V266H886.484V265.376C886.016 265.857 885.34 266.156 884.521 266.156C883.156 266.156 882.298 265.363 882.298 264.232C882.298 263.075 883.234 262.36 884.729 262.36H886.341V262.074C886.341 261.359 885.925 260.943 885.145 260.943C884.482 260.943 884.014 261.216 883.442 261.827L882.532 260.748C883.273 259.864 884.209 259.422 885.34 259.422C887.017 259.422 888.096 260.397 888.096 262.178ZM886.341 263.595V263.517H884.963C884.391 263.517 884.066 263.738 884.066 264.167C884.066 264.596 884.43 264.869 884.989 264.869C885.756 264.869 886.341 264.336 886.341 263.595ZM893.737 259.565V261.112H893.269C892.216 261.112 891.54 261.684 891.54 262.789V266H889.785V259.565H891.397V260.332C891.826 259.799 892.45 259.487 893.165 259.487C893.386 259.487 893.568 259.513 893.737 259.565ZM899.378 256.25H901.133V266H899.521V265.207C899.092 265.818 898.338 266.156 897.454 266.156C895.66 266.156 894.334 264.726 894.334 262.789C894.334 260.852 895.66 259.422 897.454 259.422C898.273 259.422 898.91 259.682 899.378 260.189V256.25ZM899.404 262.789C899.404 261.645 898.663 261.008 897.779 261.008C896.843 261.008 896.115 261.723 896.115 262.776C896.115 263.855 896.83 264.557 897.779 264.557C898.663 264.557 899.404 263.946 899.404 262.789Z" fill="white"/>
<path d="M741.526 366L741.045 364.882H737.535L737.054 366H735.169L739.004 357.264H739.589L743.411 366H741.526ZM740.434 363.439L739.29 360.54L738.146 363.439H740.434ZM752.409 357.264H752.981V366H751.226V361.424L749.068 364.128H748.496L746.338 361.424V366H744.583V357.264H745.155L748.782 361.905L752.409 357.264ZM762.781 357.264H763.353V366H761.598V361.424L759.44 364.128H758.868L756.71 361.424V366H754.955V357.264H755.527L759.154 361.905L762.781 357.264ZM775.652 362.789C775.652 364.726 774.326 366.156 772.532 366.156C771.648 366.156 770.92 365.818 770.465 365.207V366H768.853V356.25H770.608V360.189C771.076 359.682 771.713 359.422 772.532 359.422C774.326 359.422 775.652 360.852 775.652 362.789ZM773.871 362.776C773.871 361.723 773.143 361.008 772.207 361.008C771.31 361.008 770.582 361.645 770.582 362.789C770.582 363.946 771.323 364.557 772.207 364.557C773.156 364.557 773.871 363.855 773.871 362.776ZM776.665 362.776C776.626 360.943 778.225 359.383 780.11 359.422C781.995 359.396 783.607 360.943 783.568 362.776C783.607 364.609 781.982 366.182 780.097 366.143C778.212 366.182 776.626 364.609 776.665 362.776ZM781.774 362.789C781.774 361.788 781.059 361.021 780.11 361.021C779.135 361.021 778.446 361.762 778.446 362.789C778.446 363.79 779.135 364.531 780.11 364.531C781.059 364.531 781.774 363.79 781.774 362.789ZM784.574 362.776C784.535 360.943 786.134 359.383 788.019 359.422C789.904 359.396 791.516 360.943 791.477 362.776C791.516 364.609 789.891 366.182 788.006 366.143C786.121 366.182 784.535 364.609 784.574 362.776ZM789.683 362.789C789.683 361.788 788.968 361.021 788.019 361.021C787.044 361.021 786.355 361.762 786.355 362.789C786.355 363.79 787.044 364.531 788.019 364.531C788.968 364.531 789.683 363.79 789.683 362.789ZM799.192 366H797.19L794.603 362.438V366H792.848V356.25H794.603V362.308L796.917 359.565H798.997L796.579 362.412L799.192 366ZM803.766 366V356.25H805.521V366H803.766ZM807.257 366V359.565H809.012V366H807.257ZM807.01 357.225C807.01 356.601 807.504 356.133 808.128 356.133C808.752 356.133 809.259 356.601 809.259 357.225C809.259 357.836 808.752 358.304 808.128 358.304C807.504 358.304 807.01 357.836 807.01 357.225ZM815.571 359.565H817.183V368.34H815.428V365.376C814.96 365.883 814.284 366.156 813.504 366.156C811.71 366.156 810.384 364.7 810.384 362.776C810.384 360.852 811.71 359.422 813.504 359.422C814.388 359.422 815.142 359.76 815.571 360.371V359.565ZM815.454 362.776C815.454 361.619 814.713 361.008 813.829 361.008C812.88 361.008 812.165 361.71 812.165 362.789C812.165 363.842 812.893 364.557 813.829 364.557C814.713 364.557 815.454 363.92 815.454 362.776ZM818.859 363.166V359.565H820.614V363.309C820.614 364.05 821.121 364.544 821.836 364.544C822.512 364.544 823.032 364.05 823.032 363.309V359.565H824.787V363.166C824.787 364.96 823.513 366.156 821.836 366.156C820.12 366.156 818.859 364.96 818.859 363.166ZM826.465 366V359.565H828.22V366H826.465ZM826.218 357.225C826.218 356.601 826.712 356.133 827.336 356.133C827.96 356.133 828.467 356.601 828.467 357.225C828.467 357.836 827.96 358.304 827.336 358.304C826.712 358.304 826.218 357.836 826.218 357.225ZM834.636 356.25H836.391V366H834.779V365.207C834.35 365.818 833.596 366.156 832.712 366.156C830.918 366.156 829.592 364.726 829.592 362.789C829.592 360.852 830.918 359.422 832.712 359.422C833.531 359.422 834.168 359.682 834.636 360.189V356.25ZM834.662 362.789C834.662 361.645 833.921 361.008 833.037 361.008C832.101 361.008 831.373 361.723 831.373 362.776C831.373 363.855 832.088 364.557 833.037 364.557C833.921 364.557 834.662 363.946 834.662 362.789ZM838.132 366V359.565H839.887V366H838.132ZM837.885 357.225C837.885 356.601 838.379 356.133 839.003 356.133C839.627 356.133 840.134 356.601 840.134 357.225C840.134 357.836 839.627 358.304 839.003 358.304C838.379 358.304 837.885 357.836 837.885 357.225ZM845.757 364.531V366C845.341 366.104 844.938 366.156 844.548 366.156C842.923 366.156 841.974 365.35 841.974 363.738V361.047H840.96V359.565H841.974V357.94H843.729V359.565H845.549V361.047H843.729V363.582C843.729 364.31 844.093 364.583 844.925 364.583C845.029 364.583 845.302 364.57 845.757 364.531ZM851.425 359.565H853.271L850.19 366.559C849.605 367.898 848.825 368.496 847.629 368.496C847.265 368.496 846.888 368.444 846.498 368.34V366.871C846.901 366.91 847.148 366.923 847.252 366.923C847.876 366.923 848.292 366.728 848.591 366.052L848.786 365.61L846.316 359.565H848.175L849.748 363.79L851.425 359.565ZM862.616 356.25H864.371V366H862.759V365.207C862.33 365.818 861.576 366.156 860.692 366.156C858.898 366.156 857.572 364.726 857.572 362.789C857.572 360.852 858.898 359.422 860.692 359.422C861.511 359.422 862.148 359.682 862.616 360.189V356.25ZM862.642 362.789C862.642 361.645 861.901 361.008 861.017 361.008C860.081 361.008 859.353 361.723 859.353 362.776C859.353 363.855 860.068 364.557 861.017 364.557C861.901 364.557 862.642 363.946 862.642 362.789ZM872.027 363.374H867.516C867.724 364.193 868.387 364.648 869.323 364.648C869.96 364.648 870.558 364.427 871.117 363.998L871.845 365.194C871.078 365.831 870.22 366.156 869.271 366.156C867.282 366.195 865.709 364.648 865.748 362.789C865.709 360.93 867.256 359.383 869.115 359.422C870.896 359.422 872.144 360.735 872.144 362.412C872.144 362.724 872.105 363.049 872.027 363.374ZM867.516 362.139H870.441C870.428 361.346 869.817 360.839 869.05 360.839C868.309 360.839 867.711 361.346 867.516 362.139ZM872.929 364.908L873.813 363.842C874.372 364.427 874.983 364.713 875.62 364.713C876.088 364.713 876.439 364.531 876.439 364.18C876.439 363.907 876.257 363.803 875.776 363.595L875.087 363.309C873.904 362.828 873.332 362.295 873.332 361.346C873.332 360.137 874.294 359.422 875.698 359.422C876.66 359.422 877.427 359.747 878.012 360.384L877.128 361.463C876.699 361.06 876.218 360.852 875.685 360.852C875.256 360.852 874.996 361.008 874.996 361.307C874.996 361.554 875.165 361.671 875.672 361.879L876.296 362.139C877.544 362.646 878.103 363.153 878.103 364.102C878.103 364.739 877.869 365.246 877.388 365.61C876.92 365.974 876.322 366.156 875.594 366.156C874.463 366.156 873.514 365.688 872.929 364.908ZM879.43 366V359.565H881.185V366H879.43ZM879.183 357.225C879.183 356.601 879.677 356.133 880.301 356.133C880.925 356.133 881.432 356.601 881.432 357.225C881.432 357.836 880.925 358.304 880.301 358.304C879.677 358.304 879.183 357.836 879.183 357.225ZM887.77 359.565H889.382V365.285C889.382 367.378 888.069 368.496 886.054 368.496C884.845 368.496 883.792 368.093 882.895 367.3L883.818 366.078C884.533 366.611 885.131 366.91 885.911 366.91C886.951 366.91 887.627 366.39 887.627 365.389V365.038C887.159 365.545 886.483 365.805 885.664 365.805C883.883 365.805 882.583 364.492 882.583 362.607C882.583 360.696 883.909 359.422 885.664 359.422C886.587 359.422 887.315 359.76 887.77 360.371V359.565ZM887.653 362.581C887.653 361.476 886.925 360.917 886.028 360.917C885.079 360.917 884.364 361.554 884.364 362.594C884.364 363.634 885.092 364.323 886.028 364.323C886.912 364.323 887.653 363.686 887.653 362.581ZM897.037 362.009V366H895.295V362.243C895.295 361.502 894.814 360.995 894.099 360.995C893.384 360.995 892.877 361.502 892.877 362.243V366H891.122V359.565H892.734V360.15C893.189 359.695 893.852 359.422 894.619 359.422C896.114 359.422 897.037 360.449 897.037 362.009Z" fill="white"/>
</g>
<defs>
<linearGradient id="paint0_linear_6183_3149" x1="669" y1="166.5" x2="480.5" y2="266" gradientUnits="userSpaceOnUse">
<stop stop-color="#7D71FF"/>
<stop offset="1" stop-opacity="0"/>
</linearGradient>
<linearGradient id="paint1_linear_6183_3149" x1="488.5" y1="256.5" x2="697.5" y2="364.5" gradientUnits="userSpaceOnUse">
<stop stop-opacity="0"/>
<stop offset="1" stop-color="#7D71FF"/>
</linearGradient>
<linearGradient id="paint2_linear_6183_3149" x1="703" y1="261" x2="487" y2="260" gradientUnits="userSpaceOnUse">
<stop stop-color="#7D72FF"/>
<stop offset="0.965" stop-opacity="0"/>
</linearGradient>
<linearGradient id="paint3_linear_6183_3149" x1="405.5" y1="261.5" x2="-13.5" y2="262" gradientUnits="userSpaceOnUse">
<stop stop-color="#6A6A6A"/>
<stop offset="0.965" stop-opacity="0"/>
</linearGradient>
<linearGradient id="paint4_linear_6183_3149" x1="405" y1="261.5" x2="-8" y2="261.5" gradientUnits="userSpaceOnUse">
<stop offset="0.207393" stop-color="#767676"/>
<stop offset="1" stop-opacity="0"/>
</linearGradient>
<radialGradient id="paint5_radial_6183_3149" cx="0" cy="0" r="1" gradientUnits="userSpaceOnUse" gradientTransform="translate(454 262) rotate(90) scale(100)">
<stop stop-color="#7B78FF"/>
<stop offset="1" stop-color="#050034"/>
</radialGradient>
<radialGradient id="paint6_radial_6183_3149" cx="0" cy="0" r="1" gradientUnits="userSpaceOnUse" gradientTransform="translate(454.5 261.5) rotate(90) scale(75)">
<stop stop-color="#7B78FF"/>
<stop offset="1" stop-color="#050034"/>
</radialGradient>
<radialGradient id="paint7_radial_6183_3149" cx="0" cy="0" r="1" gradientUnits="userSpaceOnUse" gradientTransform="translate(454.5 261.5) rotate(90) scale(49.5)">
<stop stop-color="#7B78FF"/>
<stop offset="1" stop-color="#050034"/>
</radialGradient>
<linearGradient id="paint8_linear_6183_3149" x1="543.314" y1="459" x2="543.314" y2="495.135" gradientUnits="userSpaceOnUse">
<stop stop-color="#7F7CFF"/>
<stop offset="0.330578" stop-color="#5C58FF"/>
<stop offset="1" stop-color="#373599"/>
</linearGradient>
<linearGradient id="paint9_linear_6183_3149" x1="718" y1="160.5" x2="981" y2="160.5" gradientUnits="userSpaceOnUse">
<stop stop-color="#7D71FF"/>
<stop offset="1" stop-opacity="0"/>
</linearGradient>
<linearGradient id="paint10_linear_6183_3149" x1="718" y1="261.5" x2="981" y2="261.5" gradientUnits="userSpaceOnUse">
<stop stop-color="#7D71FF"/>
<stop offset="1" stop-opacity="0"/>
</linearGradient>
<linearGradient id="paint11_linear_6183_3149" x1="718" y1="361.5" x2="981" y2="361.5" gradientUnits="userSpaceOnUse">
<stop stop-color="#7D71FF"/>
<stop offset="1" stop-opacity="0"/>
</linearGradient>
<clipPath id="clip0_6183_3149">
<rect width="1043" height="558" fill="white"/>
</clipPath>
<clipPath id="clip1_6183_3149">
<rect width="47.3331" height="55.6554" fill="white" transform="translate(430 234)"/>
</clipPath>
<clipPath id="clip2_6183_3149">
<rect width="31.1473" height="36.6238" fill="white" transform="translate(340 459.435)"/>
</clipPath>
</defs>
</svg>
