<?xml version="1.0" encoding="UTF-8"?>
<svg xmlns="http://www.w3.org/2000/svg" xmlns:xlink="http://www.w3.org/1999/xlink" width="24px" height="24px" viewBox="0 0 24 24" version="1.1">
<g id="surface1">
<path style=" stroke:none;fill-rule:nonzero;fill:rgb(61.960787%,79.215688%,90.196079%);fill-opacity:1;" d="M 24 12 C 24 5.371094 18.628906 0 12 0 C 5.371094 0 0 5.371094 0 12 C 0 18.628906 5.371094 24 12 24 C 18.628906 24 24 18.628906 24 12 Z M 24 12 "/>
<path style=" stroke:none;fill-rule:nonzero;fill:rgb(0%,0%,0%);fill-opacity:1;" d="M 13.191406 11.042969 L 17.746094 5.855469 L 16.667969 5.855469 L 12.707031 10.359375 L 9.550781 5.855469 L 5.902344 5.855469 L 10.683594 12.667969 L 5.902344 18.105469 L 6.984375 18.105469 L 11.160156 13.347656 L 14.5 18.105469 L 18.144531 18.105469 M 7.375 6.652344 L 9.03125 6.652344 L 16.667969 17.347656 L 15.007812 17.347656 "/>
</g>
</svg>
